<svg width="1034" height="197" viewBox="0 0 1034 197" fill="none" xmlns="http://www.w3.org/2000/svg">
<path d="M517.002 197C475.472 197 422.164 189.161 358.558 173.699C281.539 154.977 192.15 145.079 100.059 145.079H0.0588205V143.923H100.059C146.007 143.923 191.651 146.402 235.718 151.288C279.659 156.161 321.365 163.355 359.679 172.67C422.932 188.046 475.863 195.844 517.002 195.844C558.137 195.844 611.067 188.046 674.326 172.67C712.644 163.355 754.351 156.161 798.287 151.288C842.359 146.399 887.998 143.923 933.946 143.923H1033.95V145.079H933.946C841.854 145.079 752.466 154.974 675.447 173.699C611.841 189.161 558.533 197 517.002 197Z" fill="#D9D9D9"/>
<path d="M517.002 178.414C476.818 178.414 425.239 170.949 363.685 156.23C289.124 138.398 202.586 128.972 113.432 128.972H16.6397V127.932H113.432C157.896 127.932 202.067 130.29 244.714 134.945C287.234 139.584 327.599 146.434 364.679 155.303C425.92 169.948 477.166 177.376 516.998 177.376C556.829 177.376 608.08 169.95 669.316 155.303C706.396 146.434 746.756 139.587 789.281 134.945C831.928 130.293 876.099 127.932 920.563 127.932H1017.36V128.972H920.563C831.409 128.972 744.871 138.398 670.31 156.23C608.766 170.949 557.182 178.414 517.002 178.414Z" fill="#D9D9D9"/>
<path d="M517.002 159.828C478.17 159.828 428.31 152.74 368.812 138.761C296.71 121.82 213.026 112.865 126.811 112.865H33.2257V111.94H126.811C213.325 111.94 297.312 120.929 369.683 137.933C428.907 151.848 478.474 158.903 516.998 158.903C555.527 158.903 605.088 151.848 664.312 137.933C736.683 120.929 820.67 111.94 907.184 111.94H1000.77V112.865H907.184C820.969 112.865 737.286 121.82 665.183 138.761C605.695 152.74 555.835 159.828 517.002 159.828Z" fill="#D9D9D9"/>
<path d="M517.002 141.24C479.516 141.24 431.385 134.529 373.939 121.29C304.29 105.241 223.461 96.7563 140.189 96.7563H49.8116V95.947H140.189C223.721 95.947 304.814 104.459 374.693 120.562C431.899 133.745 479.781 140.429 517.002 140.429C554.224 140.429 602.106 133.743 659.312 120.562C729.191 104.457 810.279 95.947 893.816 95.947H984.188V96.7563H893.816C810.539 96.7563 729.71 105.239 660.066 121.29C602.62 134.529 554.488 141.24 517.002 141.24Z" fill="#D9D9D9"/>
<path d="M517.002 122.654C480.863 122.654 434.455 116.318 379.066 103.821C311.88 88.6625 233.902 80.6496 153.568 80.6496H66.4023V79.9558H153.568C234.122 79.9558 312.316 87.9918 379.698 103.194C434.886 115.645 481.083 121.961 517.002 121.961C552.921 121.961 599.119 115.647 654.307 103.194C721.694 87.9918 799.888 79.9558 880.437 79.9558H967.602V80.6496H880.437C800.103 80.6496 722.125 88.6625 654.939 103.821C599.55 116.318 553.142 122.654 517.002 122.654Z" fill="#D9D9D9"/>
<path d="M517.002 104.069C482.21 104.069 437.525 98.1069 384.188 86.3523C319.461 72.0863 244.337 64.5451 166.946 64.5451H82.9832V63.967H166.941C244.513 63.967 319.813 71.5266 384.702 85.8296C437.878 97.5495 482.386 103.493 517.002 103.493C551.614 103.493 596.127 97.5495 649.298 85.8296C714.187 71.5266 789.487 63.967 867.059 63.967H951.017V64.5451H867.059C789.663 64.5451 714.544 72.0863 649.812 86.3523C596.479 98.1069 551.795 104.069 517.002 104.069Z" fill="#D9D9D9"/>
<path d="M517.002 85.4828C483.556 85.4828 440.591 79.898 389.31 68.8811C327.041 55.5054 254.772 48.436 180.319 48.436H99.5692V47.9735H180.319C254.909 47.9735 327.315 55.0568 389.712 68.4602C440.87 79.447 483.694 85.0202 516.998 85.0202C550.302 85.0202 593.13 79.4494 644.283 68.4602C706.68 55.0591 779.086 47.9735 853.676 47.9735H934.426V48.436H853.676C779.223 48.436 706.954 55.5054 644.685 68.8811C593.409 79.8957 550.448 85.4828 517.002 85.4828Z" fill="#D9D9D9"/>
<path d="M517.002 66.8946C484.898 66.8946 443.661 61.6845 394.427 51.4099C334.616 38.9269 265.208 32.3292 193.698 32.3292H116.155V31.9823H193.698C265.311 31.9823 334.822 38.5915 394.726 51.0931C443.862 61.3492 485.006 66.5477 517.002 66.5477C548.999 66.5477 590.143 61.3469 639.279 51.0931C699.183 38.5915 768.695 31.9823 840.307 31.9823H917.85V32.3292H840.307C768.797 32.3292 699.384 38.9269 639.572 51.4099C590.344 61.6845 549.102 66.8946 517.002 66.8946Z" fill="#D9D9D9"/>
<path d="M517.002 48.3088C486.245 48.3088 446.727 43.4733 399.545 33.9387C342.197 22.3483 275.638 16.2224 207.071 16.2224H132.736V15.9912H207.071C275.702 15.9912 342.324 22.124 399.736 33.726C446.854 43.249 486.309 48.0775 516.998 48.0775C547.687 48.0775 587.141 43.249 634.259 33.726C691.671 22.124 758.293 15.9912 826.924 15.9912H901.259V16.2224H826.924C758.357 16.2224 691.803 22.3483 634.45 33.9387C587.278 43.4733 547.76 48.3088 517.002 48.3088Z" fill="#D9D9D9"/>
<path d="M517.002 29.723C487.587 29.723 449.792 25.2644 404.662 16.4675C349.773 5.76977 286.073 0.115627 220.45 0.115627H149.327V0H220.45C286.103 0 349.836 5.65645 404.755 16.3612C449.856 25.1511 487.621 29.6073 517.002 29.6073C546.384 29.6073 584.149 25.1511 629.25 16.3612C684.169 5.65877 747.897 0 813.555 0H884.678V0.115627H813.555C747.932 0.115627 684.232 5.76977 629.343 16.4675C584.213 25.2621 546.418 29.723 517.002 29.723Z" fill="#D9D9D9"/>
<path d="M517.002 29.6652L518.227 196.422H515.778L517.002 29.6652Z" fill="#D9D9D9"/>
<path d="M498.169 29.1194L491.514 195.46L489.315 195.439L498.169 29.1194Z" fill="#D9D9D9"/>
<path d="M479.335 27.6903L464.816 192.925L462.862 192.884L479.335 27.6903Z" fill="#D9D9D9"/>
<path d="M460.502 25.6182L438.299 189.221L436.585 189.165L460.502 25.6182Z" fill="#D9D9D9"/>
<path d="M432.604 21.5297L398.845 181.999L397.38 181.929L432.604 21.5297Z" fill="#D9D9D9"/>
<path d="M404.706 16.4144L359.723 173.225L358.514 173.146L404.706 16.4144Z" fill="#D9D9D9"/>
<path d="M360.257 9.116L297.625 160.522L296.666 160.432L360.257 9.116Z" fill="#D9D9D9"/>
<path d="M314.867 4.08624L233.911 151.691L233.196 151.603L314.867 4.08624Z" fill="#D9D9D9"/>
<path d="M268.342 1.07995L168.244 146.362L167.778 146.291L268.342 1.07995Z" fill="#D9D9D9"/>
<path d="M220.45 0.0578133L100.171 144.522L99.9415 144.48L220.45 0.0578133Z" fill="#D9D9D9"/>
<path d="M0 144.489L149.327 0.0578133L0.11262 144.515L0 144.489Z" fill="#D9D9D9"/>
<path d="M517.002 29.6652L518.227 196.422H515.778L517.002 29.6652Z" fill="#D9D9D9"/>
<path d="M535.836 29.1194L544.69 195.439L542.486 195.46L535.836 29.1194Z" fill="#D9D9D9"/>
<path d="M554.669 27.6903L571.143 192.884L569.184 192.925L554.669 27.6903Z" fill="#D9D9D9"/>
<path d="M573.503 25.6182L597.415 189.165L595.706 189.221L573.503 25.6182Z" fill="#D9D9D9"/>
<path d="M601.401 21.5297L636.62 181.929L635.16 181.999L601.401 21.5297Z" fill="#D9D9D9"/>
<path d="M629.294 16.4144L675.491 173.146L674.277 173.225L629.294 16.4144Z" fill="#D9D9D9"/>
<path d="M673.743 9.116L737.34 160.432L736.38 160.522L673.743 9.116Z" fill="#D9D9D9"/>
<path d="M719.138 4.08624L800.804 151.603L800.094 151.691L719.138 4.08624Z" fill="#D9D9D9"/>
<path d="M765.658 1.07995L866.222 146.291L865.756 146.362L765.658 1.07995Z" fill="#D9D9D9"/>
<path d="M813.555 0.0578133L934.059 144.48L933.833 144.522L813.555 0.0578133Z" fill="#D9D9D9"/>
<path d="M1033.89 144.515L884.678 0.0578133L1034 144.489L1033.89 144.515Z" fill="#D9D9D9"/>
</svg>
