<svg width="330" height="288" viewBox="0 0 330 288" fill="none" xmlns="http://www.w3.org/2000/svg">
<path d="M272.814 259.681C272.689 259.681 272.564 259.639 272.48 259.515L229.374 199.97C229.249 199.804 229.29 199.513 229.458 199.389C229.625 199.264 229.917 199.306 230.043 199.472L273.191 259.017C273.316 259.183 273.274 259.473 273.107 259.598C272.982 259.639 272.898 259.681 272.814 259.681Z" fill="white"/>
<path d="M200.776 160.273C200.651 160.273 200.525 160.232 200.442 160.107L158.506 102.223C158.381 102.057 158.423 101.766 158.59 101.642C158.757 101.517 159.05 101.559 159.175 101.725L201.111 159.609C201.236 159.775 201.194 160.065 201.027 160.19C200.943 160.232 200.86 160.273 200.776 160.273Z" fill="white"/>
<path d="M91.8614 128.632C91.6942 128.632 91.5269 128.549 91.4851 128.383C91.4015 128.175 91.5269 127.926 91.736 127.843L158.757 101.6C158.966 101.517 159.217 101.6 159.301 101.849C159.384 102.057 159.259 102.306 159.05 102.389L92.0287 128.632C91.9451 128.632 91.9032 128.632 91.8614 128.632Z" fill="white"/>
<path d="M32.8677 226.919C32.7004 226.919 32.5331 226.836 32.4913 226.67C32.4076 226.462 32.4914 226.213 32.7422 226.13L133.169 186.267C133.379 186.184 133.629 186.267 133.713 186.516C133.797 186.724 133.713 186.973 133.462 187.056L33.0348 226.919C32.993 226.877 32.9095 226.919 32.8677 226.919Z" fill="white"/>
<path d="M328.881 160.439C328.756 160.439 328.631 160.398 328.547 160.273L299.196 120.909C299.071 120.743 299.113 120.452 299.28 120.327C299.447 120.203 299.74 120.244 299.865 120.41L329.216 159.775C329.341 159.941 329.3 160.232 329.132 160.356C329.049 160.398 328.965 160.439 328.881 160.439Z" fill="white"/>
<path d="M200.776 160.273C200.609 160.273 200.441 160.19 200.4 160.024C200.316 159.816 200.4 159.567 200.651 159.484L299.364 120.327C299.573 120.244 299.824 120.327 299.907 120.577C299.991 120.784 299.907 121.033 299.656 121.116L200.943 160.273C200.901 160.273 200.86 160.273 200.776 160.273Z" fill="white"/>
<path d="M103.443 86.0288C103.317 86.0288 103.192 85.9873 103.108 85.8627L61.2566 27.4804C61.1311 27.3143 61.173 27.0237 61.3403 26.8991C61.5493 26.7745 61.8001 26.816 61.9255 26.9821L103.777 85.3644C103.903 85.5305 103.861 85.8212 103.694 85.9458C103.61 86.0289 103.526 86.0288 103.443 86.0288Z" fill="white"/>
<path d="M201.403 99.1503C201.236 99.1503 201.069 99.0673 201.027 98.9012C200.943 98.6936 201.027 98.4444 201.278 98.3614L302.374 58.6647C302.583 58.5817 302.834 58.6647 302.918 58.9139C303.001 59.1215 302.918 59.3706 302.667 59.4537L201.57 99.1503C201.529 99.1503 201.487 99.1503 201.403 99.1503Z" fill="white"/>
<path d="M175.356 186.35C175.188 186.35 175.021 186.267 174.979 186.101C174.896 185.893 174.979 185.644 175.23 185.561L244.885 157.865C245.094 157.782 245.345 157.865 245.429 158.114C245.513 158.321 245.429 158.571 245.178 158.654L175.523 186.35C175.481 186.35 175.439 186.35 175.356 186.35Z" fill="white"/>
<path d="M175.356 186.35C175.23 186.35 175.105 186.308 175.021 186.184L131.957 126.099C131.832 125.933 131.874 125.642 132.041 125.518C132.25 125.393 132.501 125.435 132.626 125.601L175.69 185.686C175.816 185.852 175.774 186.142 175.607 186.267C175.523 186.35 175.439 186.35 175.356 186.35Z" fill="white"/>
<path d="M29.3974 166.709C29.2302 166.709 29.0629 166.626 29.0211 166.46C28.9375 166.253 29.0211 166.003 29.272 165.92L132.166 125.518C132.375 125.435 132.626 125.518 132.71 125.767C132.793 125.975 132.71 126.224 132.459 126.307L29.5647 166.709C29.4811 166.709 29.4392 166.709 29.3974 166.709Z" fill="white"/>
<path d="M29.3974 166.709C29.272 166.709 29.1466 166.668 29.063 166.543L0.715924 125.725C0.590494 125.559 0.632299 125.269 0.841348 125.144C1.00859 125.02 1.30119 125.061 1.42662 125.269L29.7737 166.087C29.8991 166.253 29.8573 166.543 29.6483 166.668C29.5647 166.668 29.481 166.709 29.3974 166.709Z" fill="white"/>
<path d="M158.883 102.389C158.715 102.389 158.548 102.265 158.464 102.098L129.448 1.15439C129.365 0.946774 129.532 0.697652 129.741 0.656129C129.95 0.614605 130.201 0.739206 130.243 0.946825L159.259 101.891C159.342 102.099 159.175 102.348 158.966 102.389C158.966 102.389 158.924 102.389 158.883 102.389Z" fill="white"/>
<path d="M200.776 160.273C200.609 160.273 200.442 160.149 200.358 159.982L171.802 58.9969C171.718 58.7892 171.885 58.5401 172.095 58.4986C172.304 58.4571 172.554 58.5817 172.596 58.7893L201.152 159.775C201.236 159.983 201.069 160.232 200.86 160.273C200.86 160.273 200.818 160.273 200.776 160.273Z" fill="white"/>
<path d="M299.531 121.075C299.364 121.075 299.196 120.95 299.113 120.784L272.396 19.7986C272.354 19.5909 272.48 19.3418 272.689 19.3003C272.898 19.2172 273.149 19.3834 273.191 19.591L299.907 120.577C299.949 120.784 299.824 121.033 299.615 121.075C299.615 121.075 299.573 121.075 299.531 121.075Z" fill="white"/>
<path d="M204.497 287.377C204.33 287.377 204.163 287.253 204.079 287.086L174.938 186.059C174.854 185.852 175.021 185.603 175.23 185.561C175.439 185.478 175.69 185.644 175.732 185.852L204.873 286.879C204.957 287.087 204.79 287.336 204.581 287.377C204.581 287.377 204.539 287.377 204.497 287.377Z" fill="white"/>
<path d="M161.893 227.292C161.726 227.292 161.558 227.168 161.475 227.002L131.873 125.975C131.79 125.767 131.957 125.518 132.166 125.476C132.375 125.393 132.626 125.518 132.668 125.767L162.269 226.794C162.353 227.002 162.186 227.251 161.976 227.292C161.976 227.292 161.935 227.292 161.893 227.292Z" fill="white"/>
<path d="M60.9221 267.695C60.7549 267.695 60.5876 267.57 60.504 267.404L28.9376 166.377C28.854 166.17 28.9793 165.92 29.2302 165.837C29.4392 165.754 29.6901 165.879 29.7737 166.128L61.3403 267.155C61.4239 267.363 61.2984 267.612 61.0476 267.695C61.0057 267.695 60.9639 267.695 60.9221 267.695Z" fill="white"/>
<path d="M229.708 200.759C229.29 200.759 228.914 200.51 228.747 200.094C228.538 199.555 228.789 198.973 229.332 198.724L328.547 159.027C329.091 158.82 329.676 159.069 329.927 159.609C330.136 160.149 329.885 160.73 329.341 160.979L230.127 200.676C229.959 200.759 229.834 200.759 229.708 200.759Z" fill="white"/>
<path d="M133.295 187.679C132.96 187.679 132.626 187.513 132.459 187.222L90.9834 128.798C90.6489 128.341 90.7743 127.677 91.2342 127.345C91.6942 127.013 92.3631 127.137 92.6976 127.594L134.173 186.018C134.507 186.475 134.382 187.139 133.922 187.471C133.713 187.596 133.504 187.679 133.295 187.679Z" fill="white"/>
<path d="M204.497 288C204.079 288 203.703 287.751 203.535 287.336C203.326 286.796 203.577 286.215 204.121 285.965L272.438 258.269C272.982 258.062 273.567 258.311 273.818 258.85C274.069 259.39 273.776 259.971 273.233 260.221L204.915 287.917C204.79 288 204.664 288 204.497 288Z" fill="white"/>
<path d="M204.497 288C204.163 288 203.828 287.834 203.661 287.543L161.015 227.459C160.68 227.002 160.806 226.337 161.266 226.005C161.726 225.673 162.395 225.798 162.729 226.254L205.375 286.339C205.71 286.796 205.584 287.46 205.124 287.792C204.915 287.959 204.706 288 204.497 288Z" fill="white"/>
<path d="M60.9221 268.318C60.5876 268.318 60.2532 268.152 60.0441 267.861L31.9896 227.043C31.6551 226.586 31.7806 225.922 32.2823 225.59C32.7422 225.258 33.4112 225.382 33.7457 225.881L61.8001 266.698C62.1345 267.155 62.0091 267.819 61.5074 268.152C61.3401 268.276 61.1311 268.318 60.9221 268.318Z" fill="white"/>
<path d="M60.9221 268.318C60.504 268.318 60.1276 268.069 59.9604 267.653C59.7514 267.114 60.0023 266.532 60.5458 266.283L161.475 225.881C162.018 225.673 162.604 225.922 162.855 226.462C163.064 227.002 162.813 227.583 162.269 227.832L61.3402 268.235C61.2148 268.318 61.0893 268.318 60.9221 268.318Z" fill="white"/>
<path d="M1.05034 126.514C0.632239 126.514 0.255905 126.265 0.0886654 125.85C-0.120384 125.31 0.130537 124.729 0.674065 124.521L103.066 84.7C103.61 84.4924 104.195 84.7416 104.404 85.2814C104.613 85.8212 104.363 86.4025 103.819 86.6101L1.42661 126.431C1.30118 126.473 1.17577 126.514 1.05034 126.514Z" fill="white"/>
<path d="M61.5911 28.2694C61.173 28.2694 60.7966 28.0202 60.6294 27.605C60.4203 27.0652 60.6713 26.4838 61.2148 26.2762L129.49 0.0747445C130.034 -0.132874 130.619 0.157853 130.828 0.656137C131.037 1.19594 130.786 1.77731 130.243 1.98493L61.9673 28.1864C61.8419 28.2694 61.7165 28.2694 61.5911 28.2694Z" fill="white"/>
<path d="M172.22 59.9104C171.885 59.9104 171.593 59.7443 171.384 59.4951L129.03 1.65267C128.696 1.19591 128.779 0.531507 129.281 0.199317C129.741 -0.132872 130.41 -0.049835 130.744 0.448449L173.098 58.2495C173.432 58.7062 173.349 59.3706 172.847 59.7028C172.638 59.8274 172.429 59.9104 172.22 59.9104Z" fill="white"/>
<path d="M172.22 59.9104C171.802 59.9104 171.425 59.6612 171.258 59.246C171.049 58.7062 171.3 58.125 171.844 57.9173L272.438 18.7604C272.982 18.5528 273.567 18.802 273.776 19.3418C273.985 19.8816 273.734 20.463 273.191 20.6706L172.596 59.8274C172.471 59.8689 172.345 59.9104 172.22 59.9104Z" fill="white"/>
<path d="M302.499 60.0766C302.165 60.0766 301.872 59.952 301.663 59.6613L271.978 20.3384C271.644 19.8816 271.727 19.2172 272.187 18.885C272.647 18.5528 273.316 18.636 273.651 19.0927L303.336 58.4157C303.67 58.8724 303.586 59.5367 303.127 59.8689C302.959 59.9935 302.75 60.0766 302.499 60.0766Z" fill="white"/>
<path d="M245.011 159.277C244.676 159.277 244.384 159.111 244.175 158.861L200.567 99.3579C200.232 98.9012 200.316 98.2368 200.818 97.9046C201.278 97.5724 201.947 97.6555 202.281 98.1123L245.889 157.616C246.223 158.072 246.14 158.737 245.638 159.069C245.429 159.235 245.22 159.277 245.011 159.277Z" fill="white"/>
<path d="M133.295 187.679C132.835 187.679 132.417 187.388 132.292 186.931L102.397 85.9043C102.23 85.3645 102.565 84.7832 103.108 84.6171C103.652 84.451 104.237 84.7831 104.404 85.3229L134.298 186.35C134.466 186.89 134.131 187.471 133.588 187.637C133.504 187.679 133.42 187.679 133.295 187.679Z" fill="white"/>
<path d="M32.8677 227.542C32.4078 227.542 31.9896 227.251 31.8642 226.794L0.0469508 125.767C-0.120289 125.227 0.172396 124.646 0.715924 124.48C1.25945 124.314 1.84478 124.604 2.01202 125.144L33.8293 226.171C33.9965 226.711 33.7038 227.292 33.1603 227.459C33.0767 227.5 32.9513 227.542 32.8677 227.542Z" fill="white"/>
<path d="M91.8614 129.255C91.4015 129.255 90.9834 128.964 90.858 128.508L60.5876 27.522C60.4203 26.9822 60.7549 26.4009 61.2984 26.2348C61.8419 26.0687 62.4272 26.4008 62.5945 26.9406L92.8648 127.926C93.032 128.466 92.6976 129.047 92.1541 129.213C92.0705 129.255 91.945 129.255 91.8614 129.255Z" fill="white"/>
<path d="M328.882 161.062C328.422 161.062 328.004 160.771 327.878 160.273L301.496 59.2875C301.371 58.7477 301.705 58.1664 302.249 58.0419C302.834 57.9173 303.378 58.2079 303.545 58.7893L329.927 159.775C330.052 160.315 329.718 160.896 329.174 161.021C329.049 161.062 328.965 161.062 328.882 161.062Z" fill="white"/>
<path d="M229.708 200.759C229.249 200.759 228.831 200.468 228.705 200.011L200.442 98.9842C200.274 98.4444 200.609 97.8631 201.152 97.697C201.696 97.5309 202.281 97.8632 202.448 98.403L230.712 199.43C230.879 199.97 230.545 200.551 230.001 200.717C229.876 200.759 229.792 200.759 229.708 200.759Z" fill="white"/>
<path d="M272.814 260.304C272.355 260.304 271.936 260.013 271.811 259.556L244.008 158.529C243.84 157.989 244.175 157.408 244.76 157.242C245.304 157.076 245.889 157.408 246.056 157.948L273.86 258.975C274.027 259.515 273.693 260.096 273.107 260.262C273.024 260.304 272.898 260.304 272.814 260.304Z" fill="white"/>
</svg>
