<svg width="296" height="249" viewBox="0 0 296 249" fill="none" xmlns="http://www.w3.org/2000/svg">
<path d="M217.144 141.412C217.078 141.412 217.012 141.395 216.951 141.361C216.768 141.259 216.685 141.044 216.757 140.846L223.825 120.508C223.897 120.31 224.096 120.191 224.301 120.236C224.505 120.281 224.644 120.468 224.633 120.683L223.841 132.443C223.836 132.523 223.808 132.602 223.758 132.67L217.482 141.253C217.399 141.35 217.272 141.412 217.144 141.412ZM223.598 123.701L218.456 138.485L223.017 132.245L223.598 123.701Z" fill="white"/>
<path d="M216.846 157.577C216.829 157.577 216.807 157.577 216.79 157.571C216.585 157.543 216.43 157.356 216.43 157.146C216.513 151.054 216.569 147.68 216.735 140.976C216.735 140.885 216.768 140.8 216.818 140.732L223.094 132.149C223.216 131.985 223.426 131.934 223.609 132.024C223.786 132.115 223.88 132.319 223.825 132.517L217.244 157.265C217.194 157.452 217.028 157.577 216.846 157.577ZM217.56 141.134C217.432 146.423 217.371 149.633 217.305 153.795L222.452 134.442L217.56 141.134Z" fill="white"/>
<path d="M217.15 141.412C217.139 141.412 217.128 141.412 217.117 141.412C216.929 141.395 216.774 141.253 216.74 141.066L216.231 138.264C215.241 132.817 214.587 129.216 213.403 122.948C213.381 122.835 213.403 122.722 213.469 122.631C213.536 122.541 213.624 122.473 213.735 122.45C214.798 122.241 215.877 122.048 216.929 121.856C219.84 121.323 222.59 120.825 224.074 120.248C224.223 120.191 224.395 120.225 224.511 120.344C224.627 120.457 224.666 120.633 224.61 120.791L217.543 141.129C217.476 141.299 217.322 141.412 217.15 141.412ZM214.3 123.209C215.434 129.222 216.082 132.783 217.05 138.111L217.277 139.357L223.548 121.323C221.937 121.81 219.563 122.241 217.078 122.694C216.159 122.858 215.224 123.028 214.3 123.209Z" fill="white"/>
<path d="M216.846 157.577C216.635 157.577 216.458 157.412 216.43 157.197C215.041 144.265 214.455 137.296 213.398 122.897C213.381 122.671 213.536 122.473 213.757 122.444C213.973 122.416 214.178 122.563 214.222 122.784C215.407 129.057 216.06 132.653 217.05 138.105L217.56 140.908C217.565 140.936 217.565 140.965 217.565 140.999C217.399 147.702 217.344 151.071 217.261 157.163C217.255 157.39 217.084 157.571 216.868 157.582C216.857 157.577 216.851 157.577 216.846 157.577ZM214.787 130.365C215.357 137.783 215.838 143.36 216.53 150.21C216.58 147.481 216.635 144.769 216.729 141.021L216.231 138.264C215.7 135.331 215.263 132.93 214.787 130.365Z" fill="white"/>
<path d="M216.846 157.577C216.751 157.577 216.663 157.543 216.585 157.486C214.255 155.578 212.933 154.621 209.833 152.617C209.695 152.526 209.623 152.362 209.645 152.198C210.73 144.198 211.394 138.87 212.235 132.132C212.584 129.346 212.96 126.334 213.403 122.818C213.431 122.603 213.613 122.427 213.824 122.45C214.034 122.456 214.211 122.626 214.228 122.841C215.285 137.222 215.871 144.192 217.261 157.112C217.277 157.282 217.194 157.446 217.05 157.531C216.984 157.56 216.912 157.577 216.846 157.577ZM210.503 152.045C213.121 153.744 214.466 154.695 216.325 156.19C215.146 145.171 214.56 138.422 213.708 127.048C213.475 128.893 213.265 130.603 213.06 132.24C212.224 138.904 211.566 144.192 210.503 152.045Z" fill="white"/>
<path d="M206.861 174.03C206.806 174.03 206.745 174.019 206.69 173.991C206.518 173.911 206.419 173.719 206.452 173.526C207.819 165.809 208.411 161.546 209.64 152.192C209.656 152.051 209.745 151.926 209.878 151.864C210.005 151.801 210.154 151.813 210.276 151.892C213.409 153.919 214.748 154.882 217.106 156.818C217.255 156.943 217.305 157.152 217.222 157.328C214.045 164.399 211.981 167.802 207.182 173.872C207.105 173.979 206.983 174.03 206.861 174.03ZM210.376 152.968C209.291 161.212 208.699 165.469 207.553 172.032C211.527 166.891 213.492 163.55 216.325 157.271C214.294 155.618 212.988 154.672 210.376 152.968Z" fill="white"/>
<path d="M210.055 152.679C209.961 152.679 209.872 152.651 209.8 152.589C206.706 150.097 205.002 148.84 201.133 146.191C200.945 146.06 200.89 145.8 201.017 145.602C206.651 136.882 209.202 132.172 213.436 122.688C213.519 122.495 213.73 122.399 213.929 122.456C214.128 122.512 214.255 122.71 214.228 122.92C213.785 126.436 213.409 129.448 213.06 132.234C212.219 138.977 211.555 144.305 210.47 152.311C210.448 152.464 210.354 152.589 210.215 152.645C210.16 152.668 210.105 152.679 210.055 152.679ZM201.936 145.721C205.356 148.065 207.061 149.316 209.745 151.467C210.774 143.869 211.422 138.666 212.235 132.132C212.49 130.099 212.756 127.948 213.054 125.564C209.49 133.366 206.922 137.981 201.936 145.721Z" fill="white"/>
<path d="M206.861 174.03C206.668 174.03 206.496 173.894 206.457 173.696C204.238 163.493 203.131 157.684 200.95 145.913C200.917 145.743 200.989 145.573 201.128 145.477C201.266 145.381 201.449 145.381 201.587 145.477C205.478 148.138 207.193 149.401 210.309 151.915C210.426 152.005 210.481 152.158 210.464 152.305C209.23 161.676 208.638 165.945 207.271 173.674C207.238 173.872 207.066 174.019 206.872 174.025C206.867 174.03 206.861 174.03 206.861 174.03ZM201.952 146.757C203.862 157.056 204.952 162.763 206.817 171.443C207.924 165.033 208.516 160.759 209.612 152.441C206.856 150.227 205.184 148.982 201.952 146.757Z" fill="white"/>
<path d="M188.863 177.66C188.73 177.66 188.609 177.597 188.525 177.484C188.431 177.354 188.42 177.184 188.492 177.037C194.038 166.041 196.584 159.264 200.967 145.704C201.028 145.522 201.199 145.404 201.388 145.415C201.576 145.426 201.731 145.568 201.77 145.76C203.945 157.52 205.052 163.324 207.271 173.515C207.321 173.741 207.182 173.968 206.961 174.019C200.984 175.429 197.159 176.244 188.935 177.648C188.907 177.66 188.885 177.66 188.863 177.66ZM201.249 147.527C197.425 159.287 194.779 166.341 189.61 176.674C197.076 175.389 200.829 174.591 206.369 173.289C204.31 163.805 203.209 158.086 201.249 147.527Z" fill="white"/>
<path d="M192.068 188.383C192.023 188.383 191.985 188.378 191.94 188.361C191.813 188.321 191.713 188.219 191.675 188.094C190.407 184.278 189.776 182.172 188.459 177.348C188.426 177.229 188.448 177.11 188.509 177.008C188.57 176.907 188.675 176.839 188.791 176.816C196.988 175.417 200.807 174.602 206.767 173.192C206.939 173.153 207.116 173.226 207.21 173.379C207.304 173.532 207.293 173.73 207.182 173.872C202.068 180.343 198.875 183.44 192.311 188.298C192.239 188.355 192.156 188.383 192.068 188.383ZM189.383 177.575C190.551 181.832 191.171 183.933 192.278 187.279C198.139 182.908 201.26 179.919 205.771 174.302C200.546 175.519 196.75 176.312 189.383 177.575Z" fill="white"/>
<path d="M213.813 123.294C213.713 123.294 213.619 123.26 213.547 123.192C213.453 123.107 213.398 122.988 213.398 122.858C213.547 114.654 213.658 110.464 213.962 102.48C213.968 102.288 214.1 102.129 214.283 102.084C214.466 102.039 214.654 102.124 214.742 102.294L224.583 120.44C224.644 120.548 224.649 120.678 224.61 120.791C224.572 120.904 224.483 121.001 224.367 121.04C222.817 121.646 220.028 122.15 217.072 122.688C216.026 122.88 214.953 123.073 213.89 123.282C213.862 123.294 213.84 123.294 213.813 123.294ZM214.731 104.032C214.477 110.894 214.366 115.022 214.233 122.354C215.135 122.184 216.038 122.014 216.923 121.856C219.557 121.374 222.065 120.921 223.614 120.412L214.731 104.032Z" fill="white"/>
<path d="M224.218 121.069C224.068 121.069 223.93 120.989 223.852 120.848L214.012 102.701C213.912 102.52 213.957 102.288 214.117 102.158C214.278 102.027 214.51 102.039 214.654 102.18L222.812 110.005C222.878 110.067 222.922 110.152 222.939 110.243L224.622 120.565C224.655 120.768 224.539 120.967 224.35 121.035C224.312 121.063 224.262 121.069 224.218 121.069ZM216.021 104.66L223.409 118.283L222.148 110.537L216.021 104.66Z" fill="white"/>
<path d="M213.813 123.294C213.669 123.294 213.53 123.214 213.453 123.084C209.202 115.571 206.535 111.732 200.463 104.434C200.364 104.315 200.336 104.145 200.397 103.998C200.452 103.851 200.585 103.749 200.74 103.732C207.238 103.069 210.027 102.729 214.316 102.073C214.444 102.056 214.56 102.09 214.654 102.175C214.748 102.26 214.798 102.378 214.792 102.509C214.493 110.492 214.377 114.676 214.228 122.869C214.222 123.062 214.095 123.226 213.918 123.271C213.879 123.288 213.846 123.294 213.813 123.294ZM201.604 104.502C207.005 111.03 209.673 114.823 213.42 121.346C213.553 114.28 213.669 110.152 213.934 102.996C210.077 103.579 207.321 103.913 201.604 104.502Z" fill="white"/>
<path d="M201.36 146.264C201.321 146.264 201.283 146.258 201.244 146.247C201.072 146.196 200.95 146.032 200.945 145.851C200.58 129.069 200.474 119.817 200.364 104.162C200.364 103.981 200.469 103.822 200.635 103.76C200.795 103.698 200.984 103.749 201.094 103.885C207.204 111.228 209.894 115.09 214.172 122.66C214.239 122.778 214.244 122.926 214.189 123.05C209.933 132.585 207.37 137.318 201.703 146.077C201.626 146.196 201.498 146.264 201.36 146.264ZM201.2 105.323C201.305 119.851 201.41 128.95 201.742 144.464C206.839 136.514 209.346 131.821 213.342 122.886C209.335 115.809 206.706 111.998 201.2 105.323Z" fill="white"/>
<path d="M200.779 104.581C200.624 104.581 200.486 104.496 200.414 104.354C200.336 104.202 200.353 104.015 200.463 103.885C206.479 96.5863 209.213 92.9513 213.763 86.1909C213.868 86.0381 214.051 85.9701 214.228 86.0268C214.399 86.0777 214.521 86.2419 214.521 86.4287C214.61 92.6455 214.654 95.9295 214.792 102.492C214.798 102.707 214.643 102.888 214.438 102.922C210.132 103.579 207.332 103.924 200.823 104.587C200.807 104.581 200.79 104.581 200.779 104.581ZM213.707 87.765C209.728 93.6308 207.022 97.2204 201.758 103.63C207.365 103.052 210.093 102.718 213.957 102.129C213.829 96.2862 213.779 93.0476 213.707 87.765Z" fill="white"/>
<path d="M188.863 177.66C188.791 177.66 188.714 177.637 188.653 177.597C184.95 175.344 182.897 174.104 179.228 171.896L178.325 171.352C178.209 171.284 178.137 171.16 178.121 171.024C178.11 170.888 178.159 170.752 178.259 170.667C188.321 161.704 193.219 156.314 201.028 145.59C201.15 145.426 201.371 145.37 201.554 145.466C201.736 145.562 201.819 145.777 201.758 145.975C197.558 158.981 194.89 166.228 189.234 177.433C189.184 177.535 189.09 177.614 188.979 177.648C188.941 177.654 188.902 177.66 188.863 177.66ZM179.233 170.916L179.643 171.165C183.185 173.3 185.221 174.529 188.692 176.64C193.756 166.557 196.301 159.977 200.159 148.172C193.269 157.463 188.398 162.729 179.233 170.916Z" fill="white"/>
<path d="M201.36 146.264C201.211 146.264 201.067 146.179 200.995 146.038C199.179 142.556 198.233 140.772 196.218 137.052C196.174 136.973 196.158 136.882 196.169 136.792C196.8 131.905 197.309 127.885 197.785 124.098C198.598 117.66 199.301 112.1 200.369 104.1C200.397 103.879 200.591 103.72 200.807 103.732C201.022 103.749 201.194 103.93 201.194 104.151C201.305 119.8 201.41 129.052 201.775 145.828C201.781 146.026 201.653 146.196 201.465 146.247C201.432 146.258 201.393 146.264 201.36 146.264ZM197.01 136.763C198.659 139.81 199.594 141.559 200.906 144.073C200.618 130.569 200.502 121.918 200.408 110.135C199.744 115.231 199.207 119.483 198.609 124.205C198.133 127.959 197.63 131.939 197.01 136.763Z" fill="white"/>
<path d="M178.53 171.409C178.431 171.409 178.336 171.375 178.259 171.301C178.104 171.16 178.071 170.922 178.187 170.746C186.256 158.284 190.108 150.494 196.202 136.667C196.268 136.52 196.407 136.424 196.562 136.418C196.722 136.407 196.866 136.497 196.943 136.639C198.964 140.364 199.91 142.154 201.725 145.636C201.803 145.783 201.786 145.958 201.692 146.089C193.839 156.869 188.918 162.287 178.801 171.301C178.724 171.375 178.624 171.409 178.53 171.409ZM196.617 137.794C191.127 150.21 187.402 157.781 180.556 168.595C189.051 160.866 193.767 155.538 200.873 145.8C199.257 142.708 198.322 140.948 196.617 137.794Z" fill="white"/>
<path d="M179.969 195.704C179.847 195.704 179.731 195.653 179.654 195.551C179.532 195.404 179.521 195.189 179.632 195.036C183.318 189.657 185.072 185.835 188.476 177.076C188.542 176.907 188.708 176.799 188.885 176.81C189.062 176.822 189.217 176.946 189.262 177.122C190.573 181.929 191.199 184.029 192.461 187.823C192.521 187.998 192.461 188.196 192.311 188.304C187.74 191.69 185.238 193.202 180.146 195.665C180.091 195.687 180.03 195.704 179.969 195.704ZM188.791 178.554C185.919 185.881 184.186 189.64 181.192 194.209C185.282 192.177 187.596 190.733 191.581 187.8C190.485 184.494 189.859 182.438 188.791 178.554Z" fill="white"/>
<path d="M162.873 197.527C162.707 197.527 162.552 197.425 162.486 197.261C162.419 197.086 162.469 196.888 162.613 196.769L172.586 188.757C172.747 188.627 172.974 188.638 173.123 188.78C176.04 191.531 177.434 192.743 180.224 194.945C180.357 195.053 180.417 195.229 180.368 195.398C180.323 195.563 180.185 195.687 180.013 195.704C173.306 196.48 169.83 196.831 162.906 197.527C162.895 197.527 162.884 197.527 162.873 197.527ZM172.819 189.646L164.246 196.536C169.924 195.965 173.306 195.619 178.912 194.974C176.682 193.196 175.298 191.979 172.819 189.646Z" fill="white"/>
<path d="M179.969 195.704C179.875 195.704 179.787 195.676 179.715 195.614C176.903 193.394 175.497 192.171 172.558 189.402C172.464 189.312 172.415 189.182 172.426 189.046C172.437 188.91 172.514 188.791 172.625 188.723C179.344 184.652 182.626 182.223 188.586 176.912C188.73 176.782 188.941 176.771 189.101 176.884C189.256 176.997 189.317 177.207 189.245 177.388C185.814 186.215 184.037 190.071 180.307 195.517C180.24 195.614 180.141 195.676 180.03 195.693C180.013 195.704 179.991 195.704 179.969 195.704ZM173.533 189.165C176.062 191.537 177.445 192.737 179.881 194.668C183.168 189.816 184.911 186.141 187.845 178.696C182.759 183.163 179.493 185.535 173.533 189.165Z" fill="white"/>
<path d="M172.841 189.516C172.747 189.516 172.647 189.482 172.57 189.414C172.437 189.295 172.387 189.102 172.453 188.938C174.711 183.021 175.851 179.239 178.126 170.871C178.159 170.746 178.253 170.639 178.37 170.594C178.491 170.543 178.624 170.554 178.735 170.622L179.637 171.165C183.306 173.379 185.36 174.613 189.068 176.873C189.184 176.941 189.256 177.065 189.267 177.201C189.278 177.337 189.228 177.467 189.129 177.558C183.124 182.914 179.82 185.36 173.045 189.459C172.985 189.493 172.913 189.516 172.841 189.516ZM178.785 171.63C176.743 179.12 175.613 182.897 173.665 188.095C179.549 184.488 182.781 182.076 188.16 177.297C184.762 175.231 182.731 174.002 179.228 171.896L178.785 171.63Z" fill="white"/>
<path d="M172.841 189.516C172.824 189.516 172.802 189.516 172.78 189.51C161.689 187.896 155.213 187.07 144.487 185.7L142.097 185.394C141.892 185.365 141.737 185.196 141.731 184.986C141.726 184.777 141.87 184.595 142.069 184.556L144.393 184.114C148.179 183.395 150.73 182.914 155.092 182.065C155.169 182.048 155.247 182.059 155.313 182.087C162.641 184.924 166.216 186.232 172.974 188.695C173.173 188.768 173.289 188.983 173.239 189.199C173.2 189.385 173.029 189.516 172.841 189.516ZM144.858 184.89C154.073 186.068 160.161 186.849 168.861 188.089C164.334 186.43 160.892 185.145 155.136 182.92C150.963 183.729 148.445 184.205 144.858 184.89Z" fill="white"/>
<path d="M172.841 189.516C172.796 189.516 172.747 189.51 172.702 189.493C165.939 187.03 162.364 185.717 155.031 182.88C154.87 182.818 154.765 182.665 154.765 182.489C154.759 182.314 154.865 182.155 155.02 182.087C164.705 177.886 169.431 175.638 178.336 170.61C178.48 170.526 178.663 170.543 178.796 170.65C178.929 170.758 178.984 170.933 178.94 171.097C176.654 179.494 175.514 183.293 173.239 189.244C173.162 189.414 173.007 189.516 172.841 189.516ZM156.293 182.461C162.845 184.992 166.387 186.288 172.603 188.553C174.678 183.084 175.813 179.37 177.866 171.845C169.769 176.391 165.065 178.639 156.293 182.461Z" fill="white"/>
<path d="M178.53 171.409C178.491 171.409 178.453 171.403 178.414 171.392C178.237 171.341 178.121 171.177 178.115 170.99C178.038 165.164 178.015 160.464 177.988 155.493C177.96 150.426 177.932 145.188 177.849 138.139C177.849 137.913 178.015 137.726 178.237 137.709L178.591 137.686C186.201 137.171 190.02 136.911 196.551 136.424C196.7 136.412 196.838 136.48 196.921 136.605C197.004 136.729 197.021 136.888 196.96 137.024C190.844 150.896 186.981 158.709 178.879 171.222C178.796 171.341 178.669 171.409 178.53 171.409ZM178.685 138.53C178.768 145.381 178.79 150.516 178.818 155.487C178.84 160.057 178.862 164.399 178.929 169.597C186.373 157.99 190.169 150.324 195.914 137.324C189.809 137.777 185.996 138.037 178.685 138.53Z" fill="white"/>
<path d="M155.175 182.908C155.114 182.908 155.047 182.891 154.992 182.863C154.881 182.806 154.804 182.71 154.776 182.591C153.005 175.712 152.103 171.539 150.293 162.48C150.265 162.333 150.31 162.18 150.42 162.078C150.531 161.976 150.681 161.942 150.819 161.987C155.866 163.556 159.807 164.762 163.543 165.905C168.258 167.349 172.713 168.714 178.652 170.576C178.812 170.627 178.923 170.769 178.945 170.939C178.962 171.109 178.879 171.273 178.735 171.352C169.802 176.403 165.059 178.656 155.341 182.869C155.285 182.897 155.23 182.908 155.175 182.908ZM151.245 163.006C152.916 171.358 153.813 175.491 155.457 181.895C164.539 177.954 169.249 175.712 177.473 171.092C171.999 169.376 167.771 168.08 163.31 166.715C159.735 165.628 155.972 164.479 151.245 163.006Z" fill="white"/>
<path d="M178.53 171.409C178.381 171.409 178.242 171.33 178.17 171.194C172.022 160.051 168.496 152.787 162.657 140.755L160.089 135.473C160.023 135.331 160.034 135.161 160.122 135.031C160.211 134.901 160.366 134.838 160.521 134.861C167.909 136.005 171.59 136.582 178.331 137.715C178.53 137.749 178.674 137.924 178.68 138.128C178.763 145.183 178.79 150.42 178.818 155.487C178.846 160.459 178.868 165.152 178.945 170.979C178.945 171.171 178.824 171.347 178.641 171.392C178.602 171.403 178.563 171.409 178.53 171.409ZM161.185 135.824L163.399 140.376C168.978 151.864 172.442 158.998 178.093 169.325C178.032 164.246 178.01 159.983 177.988 155.493C177.96 150.511 177.938 145.364 177.855 138.496C171.573 137.443 167.932 136.865 161.185 135.824Z" fill="white"/>
<path d="M178.53 171.409C178.491 171.409 178.447 171.403 178.408 171.392C172.475 169.529 168.02 168.164 163.305 166.721C159.563 165.577 155.623 164.371 150.575 162.803C150.465 162.769 150.371 162.689 150.321 162.582C150.271 162.474 150.265 162.35 150.31 162.242C154.073 152.475 155.972 147.051 160.067 135.144C160.122 134.986 160.266 134.872 160.432 134.861C160.604 134.85 160.753 134.946 160.831 135.093L163.399 140.376C169.232 152.396 172.758 159.649 178.895 170.775C178.978 170.928 178.962 171.114 178.857 171.25C178.774 171.352 178.652 171.409 178.53 171.409ZM151.251 162.123C156.093 163.624 159.912 164.796 163.543 165.905C167.992 167.264 172.21 168.555 177.656 170.265C171.817 159.638 168.33 152.447 162.652 140.755L160.521 136.373C156.708 147.464 154.804 152.872 151.251 162.123Z" fill="white"/>
<path d="M142.152 185.394C142.025 185.394 141.903 185.337 141.825 185.23C141.731 185.105 141.709 184.935 141.776 184.794C145.113 177.393 146.834 172.677 150.304 162.259C150.365 162.078 150.542 161.953 150.725 161.97C150.913 161.982 151.068 162.123 151.107 162.31C152.911 171.347 153.813 175.514 155.579 182.37C155.606 182.484 155.59 182.608 155.529 182.704C155.468 182.806 155.368 182.874 155.258 182.897C150.896 183.74 148.345 184.227 144.559 184.946L142.235 185.388C142.202 185.394 142.18 185.394 142.152 185.394ZM150.598 164.009C147.548 173.113 145.843 177.739 142.866 184.403L144.404 184.109C148.063 183.412 150.564 182.937 154.665 182.144C153.06 175.921 152.169 171.845 150.598 164.009Z" fill="white"/>
<path d="M178.265 138.558C178.115 138.558 177.971 138.473 177.899 138.337C177.822 138.19 177.833 138.015 177.932 137.879C187.734 124.568 192.145 117.728 200.425 103.935C200.53 103.766 200.735 103.692 200.917 103.76C201.1 103.828 201.216 104.02 201.188 104.219C200.126 112.219 199.423 117.779 198.609 124.211C198.128 127.999 197.624 132.019 196.993 136.905C196.966 137.103 196.811 137.256 196.611 137.273C190.081 137.76 186.256 138.02 178.646 138.536L178.292 138.558C178.281 138.558 178.276 138.558 178.265 138.558ZM200.104 106.093C192.604 118.538 188.182 125.343 179.145 137.647C186.262 137.165 190.047 136.911 196.213 136.446C196.822 131.713 197.32 127.795 197.785 124.098C198.526 118.209 199.179 113.057 200.104 106.093Z" fill="white"/>
<path d="M200.779 104.581C200.724 104.581 200.668 104.57 200.618 104.547C200.452 104.473 200.347 104.298 200.369 104.111C201.803 89.9505 202.533 83.4336 203.939 72.4154C203.961 72.2399 204.083 72.0984 204.249 72.0588C204.415 72.0191 204.587 72.0814 204.686 72.2229L214.444 86.1853C214.543 86.3325 214.549 86.525 214.449 86.6722C209.883 93.4609 207.138 97.1072 201.1 104.428C201.011 104.53 200.895 104.581 200.779 104.581ZM204.62 73.5931C203.347 83.6148 202.622 90.058 201.327 102.826C206.679 96.3032 209.363 92.7078 213.591 86.4344L204.62 73.5931Z" fill="white"/>
<path d="M178.265 138.558C178.231 138.558 178.193 138.553 178.159 138.547C177.999 138.502 177.877 138.36 177.855 138.19L177.578 136.005C176.322 126.051 175.569 120.044 174.058 109.365C174.025 109.139 174.18 108.924 174.401 108.884C186.644 106.755 191.868 105.77 200.69 103.743C200.851 103.703 201.022 103.771 201.117 103.913C201.211 104.054 201.222 104.236 201.133 104.383C192.837 118.198 188.42 125.049 178.597 138.388C178.519 138.496 178.392 138.558 178.265 138.558ZM174.938 109.654C176.41 120.083 177.163 126.062 178.403 135.897L178.547 137.047C187.723 124.551 192.128 117.734 199.91 104.796C191.254 106.761 185.703 107.78 174.938 109.654Z" fill="white"/>
<path d="M178.265 138.558C178.242 138.558 178.22 138.558 178.198 138.553C171.463 137.42 167.782 136.843 160.399 135.705C160.261 135.682 160.145 135.597 160.089 135.467C160.028 135.342 160.034 135.195 160.1 135.07C165.519 125.394 168.308 120.1 172.929 111.33L174.103 109.105C174.186 108.946 174.363 108.856 174.54 108.89C174.717 108.924 174.85 109.065 174.877 109.246C176.388 119.93 177.147 125.938 178.397 135.897L178.674 138.083C178.691 138.213 178.646 138.349 178.552 138.445C178.475 138.513 178.37 138.558 178.265 138.558ZM161.119 134.952C167.915 136.005 171.562 136.577 177.783 137.618L177.578 135.999C176.377 126.447 175.63 120.531 174.235 110.634L173.66 111.726C169.122 120.344 166.349 125.609 161.119 134.952Z" fill="white"/>
<path d="M150.697 162.82C150.653 162.82 150.609 162.814 150.564 162.797C137.868 158.437 131.243 156.127 119.383 151.292C119.222 151.23 119.117 151.065 119.123 150.89C119.128 150.714 119.233 150.556 119.394 150.499C124.807 148.433 129.395 146.723 133.828 145.064C141.914 142.046 149.551 139.192 160.305 134.884C160.454 134.821 160.626 134.855 160.742 134.974C160.858 135.087 160.897 135.263 160.847 135.422C156.752 147.34 154.848 152.77 151.079 162.548C151.018 162.718 150.863 162.82 150.697 162.82ZM120.695 150.913C131.802 155.419 138.377 157.718 150.454 161.868C154.029 152.572 155.927 147.176 159.763 136.016C149.441 140.144 141.986 142.924 134.11 145.862C129.959 147.414 125.67 149.016 120.695 150.913Z" fill="white"/>
<path d="M119.709 169.269C119.615 169.269 119.521 169.235 119.449 169.172C119.355 169.093 119.294 168.974 119.294 168.844C119.261 162.967 119.222 159.383 119.15 153.443L119.123 150.901C119.123 150.76 119.189 150.624 119.305 150.545C119.422 150.465 119.566 150.448 119.693 150.499C131.531 155.329 138.15 157.633 150.83 161.987C151.007 162.05 151.123 162.225 151.112 162.418C151.101 162.61 150.963 162.769 150.78 162.808C144.482 164.139 139.683 165.13 135.04 166.081C130.264 167.066 125.753 167.995 119.798 169.252C119.77 169.269 119.743 169.269 119.709 169.269ZM119.959 151.524L119.981 153.432C120.047 159.196 120.091 162.74 120.119 168.323C125.831 167.117 130.225 166.211 134.874 165.254C139.136 164.377 143.536 163.471 149.103 162.299C137.547 158.324 131.005 156.02 119.959 151.524Z" fill="white"/>
<path d="M174.468 109.728C174.374 109.728 174.28 109.694 174.208 109.631C174.114 109.558 174.058 109.439 174.053 109.32C173.782 103.199 173.571 99.253 173.322 94.6839C173.234 93.0192 173.14 91.2584 173.034 89.2541C173.029 89.1069 173.095 88.9653 173.217 88.8804C173.339 88.7954 173.494 88.7841 173.621 88.8464C185.509 94.4347 191.431 97.5318 201 103.794C201.139 103.885 201.216 104.054 201.183 104.224C201.155 104.394 201.028 104.53 200.867 104.564C191.542 106.704 185.963 107.729 174.534 109.711C174.512 109.728 174.49 109.728 174.468 109.728ZM173.903 89.9165C173.992 91.6321 174.075 93.1778 174.152 94.6442C174.39 99.0945 174.595 102.956 174.861 108.805C186.323 106.812 191.575 105.821 199.711 103.969C190.839 98.1999 184.994 95.1368 173.903 89.9165Z" fill="white"/>
<path d="M200.779 104.581C200.613 104.581 200.463 104.479 200.397 104.321C197.287 96.7222 195.632 92.9967 191.957 85.9305C191.874 85.772 191.902 85.5738 192.023 85.4379C197.06 79.9572 199.534 77.2281 204.05 72.1777C204.172 72.0418 204.365 72.0022 204.531 72.0814C204.697 72.1607 204.791 72.3362 204.769 72.523C203.363 83.5299 202.633 90.0411 201.2 104.196C201.177 104.388 201.033 104.541 200.845 104.575C200.818 104.581 200.795 104.581 200.779 104.581ZM192.826 85.8003C196.169 92.2379 197.84 95.9238 200.535 102.463C201.803 89.9845 202.528 83.5582 203.768 73.7517C199.844 78.1284 197.392 80.8291 192.826 85.8003Z" fill="white"/>
<path d="M200.779 104.581C200.701 104.581 200.624 104.558 200.557 104.513C191.033 98.2735 185.133 95.1878 173.283 89.6164C173.117 89.5371 173.023 89.3616 173.045 89.1748C173.068 88.988 173.206 88.8407 173.383 88.8124L176.289 88.2972C182.443 87.2045 186.157 86.542 192.245 85.3134C192.422 85.2737 192.604 85.3643 192.693 85.5285C196.384 92.6229 198.045 96.3598 201.166 103.986C201.238 104.156 201.188 104.354 201.05 104.473C200.967 104.547 200.873 104.581 200.779 104.581ZM174.833 89.4183C185.47 94.4404 191.276 97.4922 199.877 103.069C197.126 96.3824 195.466 92.7022 192.095 86.208C186.173 87.4026 182.482 88.0594 176.422 89.1352L174.833 89.4183Z" fill="white"/>
<path d="M160.46 135.705C160.405 135.705 160.349 135.693 160.294 135.671C160.1 135.586 160.001 135.365 160.062 135.155C163.017 125.179 165.098 117.581 167.107 110.237C168.955 103.488 170.699 97.1128 173.051 89.1125C173.106 88.9144 173.3 88.7898 173.499 88.8124C173.699 88.8351 173.854 89.0049 173.865 89.2088C173.97 91.2131 174.064 92.9739 174.152 94.6385C174.396 99.2077 174.606 103.16 174.883 109.28C174.888 109.36 174.872 109.433 174.833 109.501L173.66 111.726C169.033 120.502 166.244 125.802 160.82 135.489C160.742 135.631 160.604 135.705 160.46 135.705ZM173.167 91.6944C171.153 98.6189 169.57 104.394 167.909 110.469C166.144 116.913 164.329 123.554 161.91 131.826C166.199 124.103 168.85 119.07 172.929 111.33L174.047 109.207C173.776 103.154 173.566 99.2304 173.322 94.6895C173.272 93.7327 173.223 92.7418 173.167 91.6944Z" fill="white"/>
<path d="M119.538 151.32C119.4 151.32 119.267 151.247 119.189 151.122C119.084 150.952 119.106 150.731 119.245 150.59C129.201 140.444 134.354 135.223 144.792 124.681C144.93 124.539 145.152 124.517 145.312 124.63C149.208 127.251 151.893 129.041 154.837 131.011C156.591 132.183 158.434 133.417 160.687 134.923C160.814 135.008 160.886 135.167 160.875 135.32C160.858 135.478 160.759 135.614 160.615 135.671C149.85 139.985 142.207 142.833 134.121 145.856C129.688 147.51 125.106 149.225 119.693 151.292C119.638 151.315 119.588 151.32 119.538 151.32ZM145.135 125.536C135.339 135.427 130.203 140.636 121.187 149.82C125.836 148.053 129.893 146.536 133.828 145.069C141.726 142.12 149.192 139.334 159.558 135.189C157.61 133.882 155.96 132.783 154.383 131.73C151.505 129.805 148.882 128.05 145.135 125.536Z" fill="white"/>
<path d="M160.46 135.705C160.383 135.705 160.3 135.682 160.233 135.637C157.981 134.131 156.138 132.896 154.383 131.724C151.439 129.754 148.755 127.965 144.858 125.343C144.759 125.275 144.692 125.173 144.676 125.055C144.659 124.936 144.687 124.817 144.764 124.72L149.076 119.211C158.23 107.502 163.753 100.436 173.14 88.9596C173.267 88.8068 173.483 88.7615 173.654 88.8577C173.826 88.954 173.909 89.1635 173.854 89.356C171.501 97.3506 169.758 103.72 167.909 110.464C165.9 117.813 163.819 125.411 160.859 135.399C160.82 135.529 160.726 135.631 160.604 135.676C160.554 135.699 160.504 135.705 160.46 135.705ZM145.694 124.89C149.385 127.37 151.987 129.108 154.837 131.017C156.47 132.104 158.18 133.247 160.222 134.618C163.094 124.907 165.137 117.451 167.107 110.243C168.801 104.06 170.406 98.1886 172.47 91.0998C163.864 101.654 158.434 108.595 149.712 119.749L145.694 124.89Z" fill="white"/>
<path d="M119.709 169.269C119.532 169.269 119.372 169.15 119.317 168.974C115.415 156.722 113.278 149.01 109.388 133.083C109.338 132.874 109.448 132.659 109.642 132.585C109.841 132.511 110.063 132.596 110.157 132.783C113.909 140.115 115.841 143.733 119.892 150.68C119.931 150.743 119.947 150.816 119.953 150.896L119.981 153.438C120.053 159.377 120.091 162.967 120.125 168.844C120.125 169.053 119.975 169.235 119.776 169.263C119.754 169.269 119.732 169.269 119.709 169.269ZM111.042 136.327C114.147 148.886 116.167 156.19 119.283 166.104C119.256 161.721 119.217 158.403 119.156 153.449L119.128 151.02C115.725 145.183 113.81 141.689 111.042 136.327Z" fill="white"/>
<path d="M119.538 151.32C119.521 151.32 119.505 151.32 119.488 151.315C119.361 151.298 119.25 151.224 119.184 151.111C115.121 144.147 113.184 140.523 109.426 133.174C109.365 133.06 109.365 132.919 109.415 132.8C109.471 132.681 109.57 132.591 109.698 132.562C120.296 129.958 127.286 128.435 137.868 126.125C140.065 125.643 142.423 125.134 145.002 124.568C145.185 124.528 145.367 124.613 145.456 124.783C145.545 124.947 145.511 125.156 145.384 125.287C134.951 135.824 129.793 141.044 119.842 151.19C119.754 151.275 119.649 151.32 119.538 151.32ZM110.406 133.264C113.915 140.115 115.841 143.716 119.621 150.211C129.007 140.642 134.138 135.444 143.779 125.706C141.737 126.153 139.833 126.566 138.034 126.957C127.635 129.233 120.711 130.739 110.406 133.264Z" fill="white"/>
<path d="M145.085 125.417C144.963 125.417 144.847 125.36 144.764 125.264C141.294 121.018 139.418 118.702 136.335 114.92L135.311 113.663C135.234 113.572 135.201 113.448 135.217 113.329C135.234 113.21 135.3 113.102 135.4 113.034C147.78 104.739 155.529 99.9155 165.336 93.8006C167.788 92.2719 170.383 90.6582 173.228 88.8747C173.4 88.7671 173.627 88.8011 173.759 88.9597C173.892 89.1182 173.892 89.3503 173.765 89.5089C164.389 100.974 158.866 108.04 149.712 119.744L145.401 125.253C145.329 125.355 145.212 125.411 145.085 125.417ZM136.252 113.482L136.977 114.37C139.955 118.034 141.814 120.321 145.08 124.318L149.076 119.211C157.693 108.193 163.094 101.286 171.523 90.9413C169.503 92.204 167.605 93.3873 165.784 94.5197C156.077 100.567 148.395 105.357 136.252 113.482Z" fill="white"/>
<path d="M145.085 125.417C145.041 125.417 144.997 125.411 144.958 125.394L139.401 123.526C132.909 121.346 128.222 119.772 120.944 117.218C120.767 117.156 120.656 116.986 120.661 116.794C120.672 116.607 120.8 116.443 120.982 116.403C126.367 115.106 129.356 114.41 134.78 113.147L135.544 112.972C135.699 112.938 135.854 112.995 135.953 113.113L136.977 114.37C140.054 118.158 141.93 120.468 145.401 124.715C145.517 124.862 145.528 125.072 145.423 125.224C145.345 125.349 145.218 125.417 145.085 125.417ZM122.571 116.896C129.085 119.172 133.579 120.684 139.656 122.722L143.834 124.126C140.934 120.576 139.13 118.351 136.335 114.92L135.477 113.861L134.963 113.98C130.031 115.129 127.109 115.809 122.571 116.896Z" fill="white"/>
<path d="M109.792 133.406C109.659 133.406 109.526 133.338 109.448 133.219C109.349 133.072 109.349 132.885 109.448 132.738C113.765 126.334 116.001 123.095 120.739 116.562C120.85 116.414 121.038 116.352 121.209 116.414C128.482 118.968 133.169 120.542 139.656 122.716L145.212 124.585C145.39 124.647 145.506 124.817 145.495 125.009C145.484 125.202 145.351 125.36 145.168 125.4C142.589 125.966 140.231 126.476 138.034 126.957C127.463 129.261 120.479 130.784 109.886 133.389C109.858 133.4 109.825 133.406 109.792 133.406ZM121.226 117.32C116.848 123.367 114.612 126.583 110.749 132.307C120.767 129.856 127.64 128.361 137.863 126.13C139.628 125.745 141.493 125.338 143.497 124.902L139.396 123.526C132.992 121.374 128.338 119.817 121.226 117.32Z" fill="white"/>
<path d="M173.449 89.6617C173.322 89.6617 173.2 89.6051 173.123 89.4975C173.029 89.373 173.007 89.2088 173.068 89.0672C176.715 80.4554 178.525 76.4128 182.017 69.4599C182.083 69.3297 182.211 69.2448 182.355 69.2334C182.498 69.2221 182.637 69.2844 182.72 69.409C186.849 75.1841 188.891 78.5021 192.676 85.5342C192.743 85.6531 192.743 85.7946 192.687 85.9192C192.632 86.0438 192.521 86.1287 192.394 86.157C186.295 87.3856 182.576 88.0481 176.422 89.1465L173.521 89.6617C173.499 89.6561 173.477 89.6617 173.449 89.6617ZM182.454 70.4564C179.266 76.8318 177.473 80.8291 174.141 88.6822L176.289 88.3028C182.249 87.2441 185.924 86.5873 191.686 85.4323C188.21 79.0003 186.195 75.7277 182.454 70.4564Z" fill="white"/>
<path d="M192.317 86.157C192.3 86.157 192.283 86.157 192.267 86.1513C192.134 86.1343 192.018 86.0551 191.957 85.9362C188.193 78.938 186.157 75.6427 182.056 69.9015C181.962 69.7656 181.951 69.5845 182.034 69.4373C182.117 69.2901 182.272 69.2108 182.438 69.2278C191.824 70.23 196.551 70.8358 204.415 72.0474C204.564 72.0701 204.692 72.1777 204.747 72.3249C204.802 72.4721 204.764 72.6363 204.664 72.7552C200.142 77.8056 197.669 80.5347 192.632 86.0211C192.544 86.1117 192.433 86.157 192.317 86.157ZM183.273 70.1733C186.943 75.3483 188.963 78.6379 192.405 85.0189C196.988 80.0308 199.44 77.33 203.513 72.7721C196.373 71.6794 191.741 71.0849 183.273 70.1733Z" fill="white"/>
<path d="M109.792 133.406L109.786 133.406C109.648 133.406 109.52 133.327 109.443 133.208C105.165 126.334 103.172 122.914 99.348 116.131C99.2705 115.995 99.2761 115.831 99.3535 115.695C99.431 115.565 99.5749 115.486 99.7299 115.492C107.539 115.865 111.911 116.046 121.093 116.386C121.248 116.392 121.386 116.482 121.453 116.624C121.519 116.765 121.503 116.935 121.414 117.06C116.682 123.582 114.452 126.815 110.14 133.213C110.057 133.338 109.924 133.406 109.792 133.406ZM100.444 116.38C103.92 122.541 105.901 125.932 109.803 132.211C113.749 126.362 115.974 123.141 120.268 117.213C111.911 116.901 107.572 116.72 100.444 116.38Z" fill="white"/>
<path d="M121.071 117.241C121.065 117.241 121.06 117.241 121.054 117.241C111.873 116.896 107.495 116.72 99.6856 116.341C99.5528 116.335 99.431 116.262 99.3591 116.148C99.2871 116.035 99.2705 115.893 99.3148 115.763C101.728 109.201 102.962 105.974 105.53 99.7909C105.585 99.6551 105.702 99.5588 105.846 99.5361C105.984 99.5135 106.128 99.5645 106.222 99.672C112.011 106.297 115.121 109.762 121.37 116.516C121.486 116.641 121.514 116.828 121.447 116.981C121.386 117.145 121.237 117.241 121.071 117.241ZM100.3 115.525C107.467 115.871 111.795 116.046 120.08 116.358C114.435 110.249 111.352 106.812 106.05 100.748C103.72 106.353 102.497 109.552 100.3 115.525Z" fill="white"/>
<path d="M121.071 117.241C120.96 117.241 120.85 117.196 120.772 117.111C114.518 110.345 111.397 106.88 105.608 100.25C105.519 100.148 105.48 100.006 105.513 99.8702C105.541 99.7343 105.635 99.6267 105.763 99.5701C113.345 96.4107 117.435 94.8424 125.654 91.9378C125.797 91.8869 125.952 91.9208 126.063 92.0227C126.174 92.1246 126.224 92.2775 126.196 92.4304C124.381 101.303 123.323 106.608 121.486 116.901C121.458 117.06 121.348 117.184 121.198 117.23C121.154 117.235 121.115 117.241 121.071 117.241ZM106.62 100.131C111.983 106.268 115.077 109.705 120.816 115.916C122.515 106.432 123.55 101.195 125.233 92.9853C117.678 95.6634 113.627 97.2147 106.62 100.131Z" fill="white"/>
<path d="M135.638 113.81C135.549 113.81 135.461 113.782 135.383 113.719C135.245 113.612 135.189 113.419 135.245 113.249L135.693 111.885C140.641 96.7618 143.126 89.1748 147.996 76.945C148.041 76.8374 148.118 76.7525 148.223 76.7129C148.328 76.6676 148.445 76.6732 148.544 76.7185C158.7 81.2368 163.814 83.6035 173.643 88.8577C173.776 88.9314 173.859 89.0672 173.865 89.2201C173.87 89.373 173.793 89.5145 173.665 89.5995C170.821 91.383 168.225 92.9966 165.773 94.5254C155.972 100.635 148.229 105.459 135.859 113.742C135.793 113.787 135.715 113.81 135.638 113.81ZM148.6 77.6754C143.845 89.6448 141.36 97.2204 136.473 112.162L136.407 112.366C148.212 104.479 155.8 99.7456 165.341 93.8006C167.611 92.3851 170.007 90.896 172.608 89.2654C163.349 84.3282 158.257 81.9728 148.6 77.6754Z" fill="white"/>
<path d="M173.449 89.6617C173.383 89.6617 173.317 89.6448 173.256 89.6108C163.449 84.3678 158.346 82.0125 148.207 77.4999C148.041 77.4263 147.941 77.2508 147.958 77.0696C147.974 76.8884 148.107 76.7355 148.284 76.6959C152.158 75.8579 155.512 75.1332 158.606 74.4707C166.67 72.7382 173.034 71.368 182.294 69.2391C182.454 69.2051 182.615 69.2618 182.714 69.392C182.814 69.5222 182.83 69.6977 182.753 69.8449C179.266 76.7808 177.468 80.8121 173.826 89.4013C173.782 89.5088 173.693 89.5938 173.582 89.6334C173.544 89.6504 173.499 89.6617 173.449 89.6617ZM149.734 77.2508C158.982 81.3727 164.063 83.745 173.25 88.6482C176.643 80.6536 178.436 76.6279 181.618 70.2639C172.819 72.2852 166.598 73.6215 158.783 75.3031C156.032 75.8919 153.077 76.526 149.734 77.2508Z" fill="white"/>
<path d="M121.071 117.241C120.966 117.241 120.861 117.201 120.783 117.122C120.684 117.026 120.634 116.879 120.661 116.737C122.499 106.438 123.556 101.127 125.371 92.2492C125.41 92.0737 125.548 91.9378 125.725 91.9152C125.897 91.8925 126.074 91.9888 126.152 92.1473C129.699 99.4909 131.598 103.618 135.046 111.115L136.009 113.204C136.064 113.323 136.064 113.453 136.009 113.572C135.953 113.691 135.848 113.77 135.726 113.799L134.963 113.974C129.539 115.237 126.55 115.933 121.171 117.224C121.137 117.241 121.104 117.241 121.071 117.241ZM125.941 93.6308C124.309 101.62 123.279 106.846 121.597 116.256C126.6 115.056 129.566 114.365 134.78 113.153L135.04 113.091L134.298 111.477C131.033 104.371 129.157 100.295 125.941 93.6308Z" fill="white"/>
<path d="M135.638 113.81C135.477 113.81 135.333 113.714 135.261 113.566L134.298 111.477C130.856 103.986 128.958 99.8645 125.41 92.5266C125.321 92.3398 125.377 92.1133 125.537 91.9944C134.459 85.4096 139.014 82.4088 148.162 76.7468C148.317 76.6506 148.511 76.6676 148.649 76.7865C148.788 76.9054 148.832 77.0979 148.766 77.2677C143.906 89.4692 141.421 97.0505 136.479 112.157L136.031 113.521C135.975 113.685 135.831 113.799 135.66 113.81C135.654 113.81 135.643 113.81 135.638 113.81ZM126.312 92.4757C129.76 99.6211 131.653 103.737 135.051 111.12L135.571 112.253L135.688 111.896C140.475 97.2714 142.954 89.69 147.52 78.1453C139.191 83.309 134.669 86.3099 126.312 92.4757Z" fill="white"/>
<path d="M148.378 77.5339C148.251 77.5339 148.129 77.4716 148.046 77.364C147.946 77.2338 147.935 77.0582 148.007 76.911C151.721 69.5505 153.608 66.1477 157.444 60.4744C157.549 60.3216 157.731 60.2536 157.909 60.3103C168.38 63.5885 173.411 65.3437 182.548 69.2504C182.714 69.324 182.819 69.4939 182.803 69.6808C182.786 69.8676 182.659 70.0148 182.482 70.0601C173.223 72.1946 166.847 73.5648 158.783 75.2974C155.689 75.9598 152.341 76.6846 148.461 77.5225C148.434 77.5338 148.406 77.5339 148.378 77.5339ZM157.958 61.2218C154.4 66.4931 152.535 69.8393 149.153 76.509C152.667 75.7447 155.756 75.0822 158.617 74.4707C166.304 72.8174 172.453 71.4982 181.032 69.5279C172.741 66.0231 167.738 64.2849 157.958 61.2218Z" fill="white"/>
<path d="M182.388 70.0771C182.332 70.0771 182.277 70.0658 182.227 70.0431C173.123 66.1477 168.109 64.3982 157.665 61.1312C157.499 61.0803 157.383 60.9274 157.372 60.7519C157.361 60.5764 157.46 60.4122 157.621 60.3386C165.745 56.7262 169.847 55.0899 177.335 52.2816C177.545 52.2023 177.777 52.3099 177.86 52.5194C179.842 57.468 180.827 61.1142 182.792 69.5562C182.83 69.7091 182.775 69.8733 182.659 69.9808C182.581 70.0431 182.487 70.0771 182.388 70.0771ZM158.982 60.6556C168.457 63.6338 173.433 65.3834 181.796 68.939C180.019 61.3237 179.045 57.768 177.246 53.2158C170.334 55.809 166.288 57.4227 158.982 60.6556Z" fill="white"/>
<path d="M182.388 70.0771C182.332 70.0771 182.277 70.0658 182.227 70.0431C182.105 69.9921 182.017 69.8789 181.984 69.7487C180.036 61.3521 179.056 57.7284 177.097 52.8365C177.025 52.661 177.08 52.4572 177.23 52.3382C177.379 52.2193 177.584 52.2193 177.733 52.3326L192.25 63.4866C192.361 63.5715 192.422 63.7074 192.416 63.849C192.411 63.9905 192.333 64.1207 192.211 64.1887L190.85 65.0097C187.961 66.7592 186.052 67.9086 182.609 70.0035C182.537 70.0545 182.465 70.0771 182.388 70.0771ZM178.414 53.9236C180.002 58.1078 180.971 61.7427 182.659 68.99C185.808 67.0763 187.668 65.9495 190.418 64.2849L191.243 63.7867L178.414 53.9236Z" fill="white"/>
<path d="M204.349 72.8967C204.326 72.8967 204.31 72.8967 204.288 72.8911C196.44 71.6794 191.724 71.0736 182.349 70.0714C182.172 70.0545 182.028 69.9186 181.989 69.7374C181.95 69.5562 182.028 69.375 182.183 69.2788C185.631 67.1838 187.54 66.0288 190.429 64.2793L191.791 63.4583C191.929 63.3734 192.101 63.379 192.239 63.4753L204.592 72.1154C204.753 72.2286 204.814 72.4381 204.742 72.6193C204.67 72.7892 204.515 72.8967 204.349 72.8967ZM183.677 69.3637C191.553 70.213 196.113 70.7962 202.622 71.7813L191.979 64.3359L190.844 65.021C188.271 66.578 186.478 67.6595 183.677 69.3637Z" fill="white"/>
<path d="M91.4226 136.786C91.3008 136.786 91.1846 136.729 91.1071 136.633C91.0075 136.514 90.9798 136.35 91.0407 136.203C94.1566 128.129 95.7783 124.018 99.3314 115.746C99.3923 115.599 99.5307 115.503 99.6912 115.492C99.8517 115.486 99.9956 115.565 100.073 115.701C103.886 122.473 105.879 125.887 110.146 132.743C110.223 132.862 110.229 133.015 110.174 133.145C110.118 133.276 109.996 133.366 109.864 133.389C101.728 134.736 97.9367 135.41 91.5112 136.769C91.478 136.786 91.4503 136.786 91.4226 136.786ZM99.7576 116.862C96.542 124.369 94.9259 128.446 92.0923 135.79C97.9256 134.567 101.695 133.893 109.105 132.664C105.204 126.396 103.217 122.994 99.7576 116.862Z" fill="white"/>
<path d="M91.4226 136.786C91.2898 136.786 91.157 136.718 91.0795 136.605C87.9359 131.962 86.4305 129.527 83.7684 124.76C83.6577 124.562 83.7186 124.313 83.9012 124.194C89.2309 120.655 92.4797 118.928 99.5306 115.537C99.6856 115.463 99.8738 115.492 99.9955 115.616C100.117 115.741 100.156 115.927 100.084 116.092C96.5365 124.347 94.9149 128.457 91.8045 136.52C91.7491 136.667 91.6163 136.769 91.4669 136.786C91.4558 136.786 91.4392 136.786 91.4226 136.786ZM84.6816 124.686C87.1168 129.024 88.5336 131.328 91.3174 135.467C94.1179 128.208 95.734 124.132 98.8776 116.788C92.69 119.783 89.5298 121.493 84.6816 124.686Z" fill="white"/>
<path d="M84.1281 124.975C84.0174 124.975 83.9067 124.93 83.8293 124.845C83.6909 124.698 83.6743 124.471 83.7905 124.307C90.6644 114.455 95.1584 109.388 105.635 99.6551C105.779 99.5192 105.995 99.5079 106.155 99.6211C106.316 99.7343 106.371 99.9495 106.299 100.131C103.737 106.302 102.503 109.524 100.095 116.069C100.056 116.171 99.9789 116.256 99.8849 116.301C92.8726 119.676 89.646 121.391 84.355 124.902C84.2831 124.953 84.2056 124.975 84.1281 124.975ZM104.794 101.586C95.972 109.852 91.5831 114.778 85.7276 122.999C90.0224 120.242 93.2656 118.555 99.3757 115.61C101.512 109.813 102.724 106.619 104.794 101.586Z" fill="white"/>
<path d="M119.715 169.269C119.599 169.269 119.483 169.218 119.4 169.121C112.537 160.9 108.984 155.974 102.868 146.208C102.79 146.083 102.779 145.919 102.846 145.783C105.358 140.761 106.692 138.105 109.421 132.783C109.504 132.625 109.67 132.54 109.836 132.557C110.007 132.579 110.146 132.704 110.19 132.874C114.075 148.778 116.206 156.478 120.102 168.708C120.163 168.901 120.086 169.11 119.909 169.212C119.853 169.252 119.781 169.269 119.715 169.269ZM103.693 145.953C109.288 154.882 112.742 159.745 118.669 166.93C115.249 156.093 113.162 148.484 109.653 134.165C107.29 138.773 105.978 141.384 103.693 145.953Z" fill="white"/>
<path d="M103.217 146.4C103.123 146.4 103.034 146.366 102.956 146.309L91.1625 136.695C91.0352 136.594 90.9798 136.424 91.0186 136.265C91.0573 136.107 91.1791 135.982 91.3396 135.948C97.7762 134.589 101.578 133.91 109.725 132.562C109.88 132.534 110.035 132.602 110.129 132.732C110.223 132.862 110.234 133.038 110.162 133.179C107.434 138.496 106.106 141.146 103.587 146.168C103.532 146.281 103.427 146.36 103.305 146.389C103.272 146.4 103.244 146.4 103.217 146.4ZM92.3745 136.599L103.078 145.324C105.325 140.829 106.642 138.213 109.039 133.542C101.822 134.731 98.0751 135.405 92.3745 136.599Z" fill="white"/>
<path d="M148.378 77.5339C148.295 77.5339 148.218 77.5112 148.151 77.4659C143.978 74.6576 141.892 73.3157 137.547 70.6206C137.42 70.5414 137.342 70.3942 137.348 70.2413C137.353 70.0884 137.442 69.9469 137.575 69.8789C145.655 65.6551 149.668 63.7923 157.626 60.3272C157.798 60.2536 157.992 60.3046 158.113 60.4518C158.23 60.599 158.241 60.8085 158.136 60.9614C154.322 66.5893 152.452 69.9808 148.755 77.3017C148.699 77.4093 148.605 77.4886 148.489 77.5169C148.45 77.5339 148.411 77.5339 148.378 77.5339ZM138.61 70.2922C142.418 72.6533 144.487 73.9951 148.218 76.4977C151.527 69.9525 153.392 66.5667 156.636 61.6861C149.756 64.6926 145.788 66.5554 138.61 70.2922Z" fill="white"/>
<path d="M157.787 61.1482C157.676 61.1482 157.571 61.1029 157.494 61.0236C157.372 60.8991 157.339 60.7122 157.411 60.548C159.237 56.4318 160.106 54.7672 161.849 52.0608C161.927 51.9362 162.071 51.8683 162.209 51.8683C168.546 52.0665 171.734 52.1344 177.49 52.2533C177.689 52.259 177.861 52.4062 177.894 52.61C177.927 52.8138 177.816 53.0063 177.628 53.08C170.156 55.8769 166.061 57.5133 157.958 61.1199C157.898 61.1369 157.842 61.1482 157.787 61.1482ZM162.414 52.7232C160.93 55.0446 160.084 56.63 158.611 59.8912C165.341 56.9131 169.31 55.3051 175.265 53.0516C170.859 52.9667 167.76 52.8874 162.414 52.7232Z" fill="white"/>
<path d="M137.763 70.6829C137.625 70.6829 137.486 70.6093 137.409 70.4791C137.298 70.2922 137.342 70.0431 137.519 69.9129L161.954 51.9476C162.115 51.8287 162.342 51.8457 162.486 51.9872C162.63 52.1288 162.657 52.3552 162.547 52.5251C160.831 55.1862 159.973 56.8282 158.169 60.8991C158.124 60.9953 158.047 61.0746 157.953 61.1142C150.016 64.568 146.009 66.4251 137.951 70.6376C137.89 70.6716 137.824 70.6829 137.763 70.6829ZM160.692 53.9179L142.296 67.4443C147.515 64.8002 151.311 63.0733 157.477 60.3952C158.811 57.3887 159.635 55.7014 160.692 53.9179Z" fill="white"/>
<path d="M125.781 92.7644C125.687 92.7644 125.587 92.7305 125.51 92.6625C125.366 92.538 125.321 92.3228 125.404 92.1473C130.203 82.2955 132.61 77.715 137.403 70.0318C137.525 69.8393 137.774 69.777 137.968 69.8959C142.323 72.5966 144.41 73.9442 148.6 76.7582C148.721 76.8374 148.788 76.9733 148.788 77.1205C148.788 77.2677 148.71 77.3979 148.589 77.4772C139.462 83.1278 134.918 86.1174 126.024 92.6852C125.952 92.7362 125.869 92.7644 125.781 92.7644ZM137.89 70.8358C133.513 77.8736 131.133 82.3465 126.904 90.9866C134.774 85.2114 139.291 82.2446 147.598 77.0922C143.89 74.6123 141.814 73.2704 137.89 70.8358Z" fill="white"/>
<path d="M142.152 185.394C142.08 185.394 142.002 185.371 141.942 185.332C132.544 179.602 127.923 176.278 119.449 169.167C119.328 169.065 119.272 168.895 119.311 168.736C119.35 168.578 119.471 168.453 119.632 168.425C125.587 167.162 130.103 166.234 134.88 165.249C139.523 164.292 144.321 163.307 150.614 161.976C150.764 161.942 150.913 161.999 151.007 162.112C151.107 162.225 151.134 162.384 151.09 162.531C147.609 172.983 145.882 177.716 142.528 185.145C142.478 185.252 142.384 185.337 142.274 185.371C142.235 185.388 142.196 185.394 142.152 185.394ZM120.65 169.082C128.543 175.678 133.131 178.962 141.969 184.363C145.107 177.377 146.817 172.694 150.072 162.961C144.122 164.218 139.506 165.169 135.04 166.087C130.496 167.021 126.185 167.91 120.65 169.082Z" fill="white"/>
<path d="M149.48 192.177C149.385 192.177 149.291 192.143 149.219 192.081C146.286 189.646 144.842 188.31 141.864 185.269C141.737 185.139 141.704 184.946 141.787 184.782C141.864 184.618 142.036 184.528 142.213 184.544L144.604 184.85C155.33 186.226 161.805 187.053 172.907 188.666C173.112 188.695 173.267 188.882 173.261 189.091C173.256 189.306 173.101 189.482 172.896 189.504C167.433 190.144 163.526 190.586 159.209 191.073C156.353 191.395 153.315 191.735 149.535 192.171C149.507 192.177 149.496 192.177 149.48 192.177ZM143.309 185.547C145.672 187.925 147.083 189.216 149.607 191.311C153.309 190.886 156.298 190.552 159.11 190.235C162.524 189.85 165.685 189.493 169.559 189.046C160.338 187.727 154.134 186.934 144.493 185.7L143.309 185.547Z" fill="white"/>
<path d="M162.873 197.527C162.829 197.527 162.779 197.522 162.735 197.505C157.344 195.585 154.582 194.481 149.314 192.143C149.142 192.069 149.042 191.882 149.07 191.69C149.098 191.497 149.247 191.35 149.435 191.333C153.215 190.897 156.254 190.557 159.11 190.235C163.427 189.748 167.334 189.312 172.796 188.666C172.979 188.644 173.156 188.751 173.228 188.927C173.3 189.102 173.245 189.306 173.101 189.425L163.128 197.437C163.056 197.493 162.962 197.527 162.873 197.527ZM151.079 191.996C155.407 193.892 158.008 194.917 162.79 196.621L171.429 189.68C166.708 190.229 163.122 190.637 159.198 191.078C156.746 191.356 154.162 191.645 151.079 191.996Z" fill="white"/>
<path d="M155.269 201.145C155.13 201.145 155.003 201.077 154.92 200.953L149.131 191.984C149.031 191.826 149.042 191.622 149.159 191.475C149.275 191.333 149.474 191.282 149.64 191.356C154.948 193.711 157.571 194.759 163.006 196.695C163.166 196.752 163.277 196.905 163.283 197.074C163.294 197.244 163.194 197.408 163.045 197.482L155.44 201.106C155.39 201.134 155.33 201.145 155.269 201.145ZM150.592 192.709L155.418 200.188L161.772 197.159C157.422 195.597 154.765 194.538 150.592 192.709Z" fill="white"/>
<path d="M128.659 192.347C128.465 192.347 128.299 192.211 128.255 192.018C128.21 191.82 128.305 191.622 128.482 191.537C133.966 188.921 136.606 187.557 141.953 184.595C142.113 184.505 142.312 184.533 142.445 184.669C145.406 187.687 146.834 189.012 149.74 191.424C149.878 191.537 149.928 191.724 149.867 191.894C149.806 192.064 149.651 192.177 149.474 192.177C141.244 192.165 136.96 192.199 128.659 192.347ZM142.08 185.496C137.547 188.004 134.852 189.408 130.59 191.469C137.304 191.356 141.455 191.322 148.312 191.333C146.02 189.397 144.598 188.061 142.08 185.496Z" fill="white"/>
<path d="M155.269 201.145C155.263 201.145 155.258 201.145 155.252 201.145C150.985 200.975 147.382 200.992 143.569 201.021C140.652 201.038 137.641 201.055 134.293 200.981C134.105 200.975 133.944 200.845 133.9 200.658C133.856 200.472 133.933 200.279 134.099 200.183L149.275 191.378C149.463 191.271 149.706 191.328 149.828 191.514L155.617 200.483C155.7 200.613 155.711 200.789 155.634 200.924C155.556 201.066 155.418 201.145 155.269 201.145ZM147.421 200.154C149.679 200.154 151.965 200.177 154.477 200.268L149.347 192.318L135.831 200.16C138.577 200.2 141.106 200.188 143.569 200.171C144.864 200.166 146.137 200.154 147.421 200.154Z" fill="white"/>
<path d="M134.304 200.981C134.171 200.981 134.038 200.913 133.961 200.794L128.316 192.16C128.233 192.03 128.222 191.865 128.293 191.73C128.365 191.594 128.504 191.503 128.653 191.503C136.961 191.356 141.239 191.316 149.485 191.333C149.673 191.333 149.839 191.463 149.884 191.65C149.933 191.837 149.85 192.035 149.684 192.126L134.509 200.93C134.442 200.964 134.376 200.981 134.304 200.981ZM129.428 192.335L134.437 199.99L147.913 192.177C140.907 192.171 136.706 192.205 129.428 192.335Z" fill="white"/>
<path d="M128.659 192.347C128.565 192.347 128.476 192.313 128.399 192.256C125.244 189.697 123.617 188.185 120.501 184.901C120.385 184.777 120.351 184.595 120.418 184.437C120.484 184.278 120.639 184.193 120.805 184.182C129.185 184.29 133.463 184.352 142.163 184.55C142.351 184.556 142.512 184.686 142.556 184.873C142.6 185.06 142.517 185.252 142.351 185.348C137.049 188.287 134.271 189.719 128.836 192.313C128.775 192.335 128.72 192.347 128.659 192.347ZM121.796 185.043C124.408 187.766 125.93 189.165 128.714 191.429C133.557 189.114 136.18 187.777 140.569 185.36C133.236 185.201 129.024 185.133 121.796 185.043Z" fill="white"/>
<path d="M115.265 195.948C115.138 195.948 115.011 195.885 114.933 195.772C114.834 195.631 114.828 195.444 114.917 195.297C117.058 191.792 118.138 189.663 120.423 184.431C120.479 184.301 120.595 184.21 120.728 184.188C120.861 184.16 121.005 184.21 121.099 184.312C124.226 187.602 125.759 189.034 128.919 191.594C129.041 191.696 129.102 191.854 129.068 192.013C129.035 192.171 128.919 192.296 128.769 192.335C124.951 193.366 122.477 194.028 119.56 194.81L115.376 195.931C115.332 195.942 115.298 195.948 115.265 195.948ZM120.927 185.349C118.984 189.765 117.911 191.922 116.162 194.844L119.339 193.994C122.051 193.27 124.375 192.647 127.751 191.735C125.144 189.589 123.561 188.106 120.927 185.349Z" fill="white"/>
<path d="M134.304 200.981C134.282 200.981 134.26 200.981 134.238 200.975C132.998 200.777 131.874 200.607 130.845 200.449C124.995 199.566 121.774 199.079 115.088 195.908C114.928 195.834 114.834 195.665 114.85 195.483C114.867 195.302 114.989 195.155 115.16 195.11L119.344 193.989C122.266 193.207 124.735 192.545 128.554 191.514C128.725 191.469 128.908 191.537 129.002 191.69L134.647 200.324C134.741 200.466 134.741 200.647 134.653 200.789C134.575 200.908 134.442 200.981 134.304 200.981ZM116.499 195.631C122.355 198.309 125.338 198.756 130.967 199.611C131.736 199.73 132.555 199.849 133.435 199.99L128.482 192.415C124.823 193.405 122.405 194.051 119.554 194.815L116.499 195.631Z" fill="white"/>
<path d="M142.152 185.394C142.146 185.394 142.146 185.394 142.141 185.394C133.446 185.196 129.168 185.133 120.789 185.026C120.573 185.026 120.396 184.85 120.379 184.635C119.97 179.171 119.765 176.012 119.305 169.082L119.289 168.872C119.278 168.702 119.366 168.544 119.516 168.465C119.665 168.385 119.842 168.408 119.97 168.516C128.404 175.593 133.003 178.905 142.357 184.607C142.517 184.703 142.595 184.901 142.545 185.088C142.501 185.269 142.335 185.394 142.152 185.394ZM121.182 184.182C128.803 184.278 133.037 184.341 140.591 184.511C132.345 179.437 127.79 176.148 120.185 169.795C120.601 176.035 120.811 179.16 121.182 184.182Z" fill="white"/>
<path d="M120.8 185.031C120.772 185.031 120.739 185.026 120.711 185.02C113.074 183.288 109.432 182.387 102.907 180.479C102.752 180.434 102.636 180.298 102.613 180.134C102.591 179.97 102.658 179.805 102.796 179.715C105.513 177.886 107.689 176.425 109.836 174.981C112.692 173.068 115.503 171.177 119.488 168.487C119.61 168.402 119.77 168.397 119.903 168.459C120.036 168.527 120.125 168.657 120.136 168.81L120.147 169.019C120.601 175.944 120.811 179.103 121.22 184.561C121.231 184.697 121.176 184.828 121.076 184.913C120.993 184.992 120.899 185.031 120.8 185.031ZM104.003 179.913C109.825 181.606 113.433 182.495 120.346 184.063C119.975 179.075 119.765 175.933 119.35 169.597C115.675 172.077 113.002 173.872 110.29 175.689C108.336 176.997 106.371 178.316 104.003 179.913Z" fill="white"/>
<path d="M104.728 189.861C104.65 189.861 104.578 189.838 104.512 189.799C104.412 189.737 104.34 189.635 104.318 189.516L102.608 180.145C102.58 179.998 102.63 179.851 102.735 179.755C102.84 179.653 102.99 179.619 103.128 179.658C109.637 181.566 113.267 182.461 120.888 184.188C121.071 184.227 121.209 184.397 121.215 184.59C121.22 184.782 121.099 184.958 120.916 185.009C114.037 187.03 110.865 187.976 104.849 189.844C104.811 189.855 104.766 189.861 104.728 189.861ZM103.549 180.666L105.054 188.893C110.323 187.257 113.439 186.328 119.123 184.658C112.769 183.208 109.222 182.319 103.549 180.666Z" fill="white"/>
<path d="M115.265 195.948C115.204 195.948 115.149 195.936 115.094 195.908C110.699 193.824 108.519 192.567 104.501 189.793C104.368 189.702 104.296 189.538 104.324 189.38C104.346 189.216 104.462 189.085 104.611 189.034C110.633 187.166 113.799 186.22 120.689 184.199C120.844 184.154 121.01 184.205 121.115 184.329C121.22 184.454 121.248 184.629 121.182 184.782C118.879 190.054 117.789 192.211 115.619 195.749C115.536 195.874 115.404 195.948 115.265 195.948ZM105.685 189.584C109.15 191.945 111.197 193.111 115.105 194.974C117.003 191.843 118.077 189.742 120.053 185.264C114.07 187.024 110.926 187.959 105.685 189.584Z" fill="white"/>
<path d="M103.017 180.496C102.951 180.496 102.879 180.479 102.818 180.445C102.685 180.372 102.602 180.224 102.602 180.066C102.669 174.019 102.685 169.195 102.707 163.607C102.724 158.709 102.746 153.155 102.807 145.97C102.807 145.783 102.929 145.619 103.106 145.568C103.283 145.517 103.471 145.59 103.571 145.749C109.664 155.476 113.201 160.385 120.03 168.572C120.108 168.663 120.141 168.787 120.125 168.906C120.108 169.025 120.042 169.133 119.942 169.201C115.952 171.89 113.14 173.781 110.284 175.695C108.137 177.139 105.962 178.594 103.244 180.428C103.172 180.468 103.095 180.496 103.017 180.496ZM103.621 147.402C103.571 153.896 103.549 159.037 103.532 163.607C103.51 168.946 103.493 173.589 103.438 179.273C105.857 177.643 107.855 176.306 109.83 174.981C112.592 173.13 115.31 171.301 119.09 168.753C112.708 161.087 109.199 156.252 103.621 147.402Z" fill="white"/>
<path d="M103.017 180.496C102.94 180.496 102.862 180.474 102.79 180.428L83.0046 167.44C82.905 167.372 82.833 167.264 82.8164 167.145C82.7998 167.026 82.833 166.902 82.9105 166.806C89.5298 158.947 93.4593 154.802 102.923 145.67C103.045 145.551 103.222 145.522 103.372 145.59C103.521 145.658 103.621 145.811 103.621 145.981C103.56 153.16 103.543 158.715 103.521 163.612C103.499 169.201 103.482 174.025 103.416 180.077C103.416 180.23 103.333 180.372 103.2 180.445C103.15 180.479 103.084 180.496 103.017 180.496ZM83.8569 166.987L102.608 179.296C102.663 173.6 102.685 168.952 102.702 163.607C102.719 158.936 102.741 153.67 102.79 146.966C94.0017 155.459 90.1054 159.587 83.8569 166.987Z" fill="white"/>
<path d="M83.2315 167.502C83.1651 167.502 83.0987 167.485 83.0323 167.451C82.8607 167.355 82.7777 167.151 82.833 166.959C85.3512 157.945 86.9175 151.943 89.087 143.637C89.6737 141.389 90.3102 138.96 91.0186 136.248C91.0573 136.112 91.1569 135.999 91.2898 135.954C91.4226 135.908 91.5665 135.937 91.6772 136.027L103.471 145.641C103.565 145.721 103.621 145.834 103.626 145.958C103.632 146.083 103.582 146.202 103.499 146.287C94.057 155.391 90.1386 159.524 83.5415 167.355C83.464 167.451 83.3477 167.502 83.2315 167.502ZM91.6606 137.097C91.013 139.56 90.4319 141.786 89.8895 143.858C87.8694 151.586 86.3696 157.322 84.1447 165.345C89.9781 158.483 93.9574 154.321 102.586 145.998L91.6606 137.097Z" fill="white"/>
<path d="M83.2315 167.502C83.0434 167.502 82.8829 167.372 82.833 167.191L75.5828 140.398C75.5275 140.183 75.6382 139.962 75.843 139.883C80.3038 138.258 83.63 137.471 91.3451 135.942C91.4835 135.914 91.6329 135.965 91.727 136.073C91.8266 136.18 91.8598 136.333 91.8266 136.475C91.1127 139.187 90.4817 141.616 89.8951 143.863C87.7255 152.175 86.1537 158.177 83.6356 167.196C83.5802 167.378 83.4142 167.502 83.2315 167.502ZM76.485 140.557L83.2371 165.509C85.5228 157.288 87.0393 151.496 89.087 143.643C89.6239 141.576 90.205 139.362 90.847 136.911C83.8459 138.303 80.5916 139.079 76.485 140.557Z" fill="white"/>
<path d="M75.9813 140.71C75.8706 140.71 75.76 140.664 75.6769 140.574C75.5662 140.449 75.533 140.268 75.5995 140.115C78.2616 133.87 79.944 130.62 83.7739 124.324C83.8514 124.2 83.9953 124.12 84.1337 124.126C84.2776 124.126 84.4159 124.211 84.4879 124.341C87.1721 129.137 88.6 131.447 91.7657 136.124C91.8432 136.243 91.8598 136.395 91.81 136.526C91.7547 136.656 91.644 136.758 91.5056 136.78C83.8348 138.303 80.5362 139.079 76.1252 140.687C76.0754 140.704 76.0256 140.71 75.9813 140.71ZM84.1115 125.377C80.741 130.943 79.0917 134.125 76.7396 139.56C80.658 138.19 83.951 137.415 90.7142 136.067C87.9525 131.968 86.4692 129.567 84.1115 125.377Z" fill="white"/>
<path d="M105.917 100.391C105.785 100.391 105.657 100.329 105.58 100.21C105.469 100.051 105.48 99.8306 105.608 99.6834C116.915 86.6269 124.071 79.9458 137.519 69.9186C137.68 69.7997 137.901 69.811 138.051 69.9525C138.195 70.0941 138.222 70.3206 138.117 70.4904C133.346 78.1454 130.945 82.7089 126.163 92.5323C126.113 92.6343 126.03 92.7079 125.925 92.7418C117.728 95.6407 113.644 97.2091 106.078 100.357C106.023 100.38 105.967 100.391 105.917 100.391ZM136.235 71.9285C124.419 80.8574 117.507 87.329 107.406 98.885C113.931 96.1899 117.988 94.6442 125.487 91.9945C129.832 83.0826 132.212 78.4964 136.235 71.9285Z" fill="white"/>
<path d="M137.757 70.6829C137.674 70.6829 137.591 70.6602 137.525 70.6093C137.381 70.5074 137.315 70.3262 137.359 70.1507C139.888 60.2026 141.161 56.0468 143.718 51.0529C143.796 50.9057 143.945 50.8152 144.111 50.8265C151.217 51.2908 154.865 51.4946 162.214 51.8626C162.392 51.8739 162.541 51.9928 162.591 52.1684C162.641 52.3439 162.58 52.5307 162.436 52.6326L138.001 70.598C137.929 70.6603 137.846 70.6829 137.757 70.6829ZM144.332 51.6928C141.991 56.3129 140.735 60.3159 138.455 69.2278L160.991 52.6553C154.494 52.3269 150.88 52.1231 144.332 51.6928Z" fill="white"/>
<path d="M137.763 70.6829C137.741 70.6829 137.724 70.6829 137.702 70.6773C130.441 69.6185 126.805 69.0863 119.959 68.0161C119.798 67.9935 119.671 67.8746 119.621 67.716C119.577 67.5575 119.621 67.3877 119.743 67.2801C129.118 58.6456 134.088 55.2711 143.923 50.8605C144.083 50.7869 144.272 50.8265 144.393 50.9624C144.515 51.0926 144.537 51.2908 144.46 51.4493C141.936 56.3695 140.674 60.4857 138.167 70.3658C138.112 70.5583 137.946 70.6829 137.763 70.6829ZM120.949 67.3141C127.131 68.2766 130.745 68.8088 137.448 69.7827C139.733 60.8085 140.995 56.6187 143.181 52.1231C134.37 56.1657 129.489 59.5063 120.949 67.3141Z" fill="white"/>
<path d="M105.917 100.391C105.846 100.391 105.774 100.374 105.707 100.329C105.536 100.221 105.464 100.012 105.53 99.8192C110.998 84.6509 114.037 77.6811 119.66 67.3933C119.743 67.2404 119.914 67.1555 120.086 67.1782C126.926 68.2483 130.563 68.7805 137.824 69.8393C137.99 69.8619 138.128 69.9921 138.167 70.1563C138.206 70.3262 138.145 70.5017 138.007 70.6037C124.619 80.5913 117.49 87.2441 106.227 100.244C106.144 100.34 106.034 100.391 105.917 100.391ZM120.241 68.0614C114.994 77.681 112.005 84.4414 107.069 97.9961C117.324 86.2872 124.347 79.7873 136.689 70.53C130.186 69.5845 126.583 69.0523 120.241 68.0614Z" fill="white"/>
<path d="M105.917 100.391C105.785 100.391 105.657 100.323 105.58 100.21C102.032 95.0406 100.278 92.4531 96.8464 87.3687C96.7357 87.2045 96.7523 86.978 96.8852 86.8364C104.883 78.219 109.808 74.0121 119.792 67.2461C119.953 67.1386 120.163 67.1555 120.302 67.2914C120.44 67.4273 120.473 67.6368 120.379 67.8123C114.778 78.0548 111.751 84.9963 106.299 100.119C106.244 100.267 106.117 100.374 105.962 100.391C105.951 100.385 105.934 100.391 105.917 100.391ZM97.7153 87.1705C100.876 91.8529 102.613 94.4177 105.796 99.0605C110.821 85.1661 113.804 78.2359 118.824 68.9277C109.936 75.0313 105.143 79.1928 97.7153 87.1705Z" fill="white"/>
<path d="M84.1281 124.975C84.0672 124.975 84.0063 124.964 83.9455 124.93C83.7628 124.839 83.6743 124.624 83.7296 124.426C88.362 108.505 90.8415 100.652 96.8077 86.9497C96.8685 86.8081 97.0014 86.7119 97.1508 86.7005C97.3002 86.6836 97.4441 86.7572 97.5327 86.8817C100.964 91.9662 102.713 94.5536 106.261 99.7173C106.382 99.8929 106.355 100.131 106.2 100.278C95.7727 109.96 91.3008 115.005 84.4713 124.794C84.3882 124.913 84.2609 124.975 84.1281 124.975ZM97.2615 87.9914C91.8377 100.527 89.3361 108.216 85.2239 122.269C91.2732 113.787 95.8115 108.788 105.364 99.9042C102.104 95.1482 100.361 92.5776 97.2615 87.9914Z" fill="white"/>
<path d="M75.9813 140.71C75.9592 140.71 75.9315 140.71 75.9094 140.704C75.7212 140.67 75.5773 140.512 75.5662 140.313C75.1456 133.678 74.0276 116.335 73.9446 115.746C73.917 115.571 74.0055 115.39 74.1549 115.305C74.3099 115.22 74.4981 115.237 74.6254 115.356L84.3993 124.234C84.5487 124.369 84.5819 124.602 84.4768 124.777C80.6746 131.034 79.0032 134.255 76.3577 140.461C76.2913 140.614 76.1418 140.71 75.9813 140.71ZM74.8523 116.692C75.1179 120.315 75.8596 131.815 76.2857 138.53C78.5383 133.366 80.2263 130.184 83.5913 124.63L74.8523 116.692Z" fill="white"/>
<path d="M84.1281 124.975C84.0285 124.975 83.9289 124.941 83.8514 124.868L74.0775 115.99C73.9612 115.888 73.9114 115.724 73.9502 115.571C76.5569 104.7 78.4054 99.4512 82.9382 90.0581C83.0212 89.8825 83.2094 89.7919 83.3976 89.8316C83.5857 89.8712 83.7186 90.0354 83.7241 90.2279C84.2277 103.698 84.4048 111.075 84.5432 124.539C84.5432 124.709 84.4491 124.862 84.2997 124.93C84.2443 124.964 84.189 124.975 84.1281 124.975ZM74.8135 115.525L83.702 123.594C83.5581 110.328 83.3754 103.307 82.9548 91.9491C79.0087 100.289 77.2321 105.487 74.8135 115.525Z" fill="white"/>
<path d="M84.1281 124.975C84.1115 124.975 84.0894 124.975 84.0728 124.97C83.868 124.941 83.7186 124.766 83.713 124.556C83.5636 110.005 83.3643 102.922 82.8939 90.2676C82.8884 90.0694 83.0157 89.8882 83.2038 89.8429C87.8971 88.603 90.7917 87.9688 97.1065 86.7118C97.256 86.6835 97.4165 86.7402 97.5106 86.8647C97.6046 86.9893 97.6268 87.1592 97.5659 87.3007C91.6218 100.963 89.1479 108.788 84.5266 124.675C84.4713 124.856 84.3108 124.975 84.1281 124.975ZM83.7352 90.579C84.1945 102.877 84.3772 110.107 84.51 121.754C88.5779 107.859 91.085 100.176 96.4811 87.7027C90.8581 88.8237 88.0244 89.4466 83.7352 90.579Z" fill="white"/>
<path d="M120.019 68.0218C119.953 68.0218 119.892 68.0048 119.831 67.9765C114.535 65.2361 111.9 63.8999 106.903 61.369C106.753 61.2954 106.665 61.1312 106.67 60.9614C106.681 60.7915 106.786 60.6443 106.947 60.5877C120.623 55.6165 128.742 53.7933 144.006 50.8321C144.211 50.7925 144.415 50.9171 144.482 51.1266C144.548 51.3361 144.443 51.5569 144.249 51.6418C134.514 56.0071 129.589 59.3534 120.296 67.9142C120.219 67.9878 120.119 68.0218 120.019 68.0218ZM108.153 61.0576C112.526 63.2714 115.138 64.602 119.953 67.0932C128.127 59.5799 132.965 56.0864 140.729 52.3439C127.972 54.8635 120.18 56.7319 108.153 61.0576Z" fill="white"/>
<path d="M162.198 52.7176C162.192 52.7176 162.187 52.7176 162.176 52.7176C154.82 52.3439 151.173 52.1457 144.061 51.6814C143.856 51.6701 143.69 51.5059 143.674 51.2964C143.657 51.0869 143.79 50.8944 143.984 50.8435L155.606 47.871C155.711 47.8426 155.828 47.8596 155.922 47.9219L162.408 51.9362C162.569 52.0381 162.646 52.2363 162.591 52.4231C162.541 52.593 162.375 52.7176 162.198 52.7176ZM146.779 51.002C151.765 51.3191 155.186 51.5116 160.576 51.7833L155.645 48.7316L146.779 51.002Z" fill="white"/>
<path d="M83.309 90.6752C83.1706 90.6752 83.0378 90.6016 82.9603 90.4771C82.8662 90.3242 82.8773 90.1204 82.9935 89.9788L106.775 60.7179C106.908 60.5537 107.146 60.5141 107.323 60.633C107.5 60.7519 107.561 60.9897 107.467 61.1822C103.399 69.3524 101.28 74.9577 97.588 87.2498C97.5438 87.397 97.422 87.5102 97.2726 87.5442C90.9743 88.8011 88.0908 89.4296 83.4197 90.6639C83.381 90.6696 83.3422 90.6752 83.309 90.6752ZM105.137 64.0528L84.4436 89.5145C88.3897 88.4954 91.2787 87.8726 96.8575 86.7572C100.018 76.2599 102.038 70.6376 105.137 64.0528Z" fill="white"/>
<path d="M74.3542 116.097C74.166 116.097 74 115.967 73.9502 115.78C73.1919 112.751 72.8488 111.262 72.2179 108.216C72.1957 108.108 72.2123 108.001 72.2677 107.905C75.1511 103.103 82.6947 90.5337 82.9327 90.0637C83.0323 89.8542 83.2813 89.7693 83.4861 89.8712C83.6798 89.9675 83.7684 90.2053 83.6909 90.4091C83.6854 90.4204 83.6798 90.4317 83.6798 90.4374C79.1803 99.7626 77.3428 104.972 74.7527 115.775C74.7139 115.967 74.5479 116.097 74.3542 116.097ZM73.0646 108.205C73.5517 110.537 73.8671 111.953 74.3486 113.929C76.0533 106.999 77.4922 102.378 79.7171 97.1072C77.0439 101.58 73.8616 106.885 73.0646 108.205Z" fill="white"/>
<path d="M97.184 87.5498C97.1121 87.5498 97.0401 87.5328 96.9737 87.4932C96.8077 87.3913 96.7302 87.1931 96.7855 87.0006C100.488 74.6519 102.624 69.024 106.714 60.7972C106.82 60.5877 107.063 60.5084 107.268 60.6103C112.266 63.1412 114.906 64.4774 120.202 67.2178C120.335 67.2857 120.423 67.4216 120.429 67.5745C120.44 67.7274 120.368 67.8689 120.246 67.9539C110.323 74.6746 105.43 78.8587 97.4829 87.4196C97.4054 87.5045 97.2947 87.5498 97.184 87.5498ZM107.273 61.5559C103.521 69.1429 101.423 74.5953 98.1027 85.5285C105.253 77.9359 110.118 73.8309 119.2 67.6481C114.446 65.1908 111.834 63.8659 107.273 61.5559Z" fill="white"/>
<path d="M104.728 189.861C104.617 189.861 104.512 189.816 104.434 189.736L82.9382 167.377C82.7888 167.225 82.7777 166.981 82.9105 166.811C83.0434 166.641 83.2813 166.602 83.4585 166.721L103.244 179.709C103.338 179.771 103.405 179.873 103.427 179.987L105.137 189.357C105.17 189.538 105.082 189.725 104.921 189.81C104.86 189.85 104.794 189.861 104.728 189.861ZM86.1261 169.484L104.069 188.151L102.641 180.332L86.1261 169.484Z" fill="white"/>
<path d="M222.535 110.747C222.43 110.747 222.33 110.707 222.253 110.634L214.095 102.809C214.012 102.73 213.968 102.622 213.962 102.509L213.691 86.4458C213.685 86.2363 213.829 86.0607 214.029 86.0211C214.228 85.9815 214.427 86.1004 214.493 86.2929L222.922 110.186C222.989 110.373 222.922 110.577 222.762 110.685C222.69 110.724 222.613 110.747 222.535 110.747ZM214.787 102.311L221.555 108.805L214.56 88.9823L214.787 102.311Z" fill="white"/>
<path d="M155.269 201.145C155.092 201.145 154.931 201.032 154.876 200.857C154.809 200.653 154.903 200.426 155.092 200.336L162.696 196.712C162.74 196.689 162.784 196.678 162.829 196.672L179.93 194.849C180.146 194.832 180.351 194.979 180.384 195.206C180.417 195.427 180.279 195.642 180.063 195.687L155.363 201.134C155.33 201.145 155.296 201.145 155.269 201.145ZM162.984 197.516L158.794 199.509L172.403 196.508L162.984 197.516Z" fill="white"/>
<path d="M75.9813 140.71C75.7932 140.71 75.6271 140.58 75.5828 140.393L71.3821 124.058C71.36 123.979 71.3655 123.899 71.3877 123.82L73.9612 115.542C74.0221 115.35 74.2103 115.225 74.404 115.248C74.6032 115.271 74.7527 115.435 74.7693 115.639L76.3964 140.251C76.413 140.472 76.258 140.664 76.0477 140.698C76.0256 140.71 76.0035 140.71 75.9813 140.71ZM72.2123 123.962L75.2729 135.863L74.0885 117.926L72.2123 123.962Z" fill="white"/>
<path d="M71.7751 124.375C71.753 124.375 71.7253 124.375 71.6976 124.369C71.4928 124.33 71.3489 124.143 71.36 123.928L72.2068 108.103C72.2179 107.893 72.3784 107.723 72.5831 107.701C72.7934 107.684 72.9761 107.82 73.0259 108.029L74.7527 115.576C74.7693 115.65 74.7693 115.729 74.7416 115.803L72.168 124.081C72.1182 124.262 71.9577 124.375 71.7751 124.375ZM72.882 111.109L72.3728 120.65L73.928 115.661L72.882 111.109Z" fill="white"/>
<path d="M172.11 236.351C172.044 236.351 171.983 236.34 171.916 236.323C171.723 236.266 171.568 236.13 171.479 235.944L101.014 81.9445C100.864 81.6218 100.975 81.2424 101.268 81.0499L224.467 0.118178C224.633 0.00493919 224.843 -0.023367 225.031 0.0332523C225.225 0.0898717 225.38 0.225749 225.468 0.412593L295.934 154.412C296.083 154.734 295.972 155.114 295.679 155.306L172.481 236.238C172.37 236.312 172.237 236.351 172.11 236.351ZM102.525 81.9049L172.398 234.607L294.423 154.446L224.55 1.74315L102.525 81.9049Z" fill="white"/>
<path d="M0.689917 95.0009C0.402123 95.0009 0.142001 94.8141 0.0423799 94.531C-0.0683102 94.2196 0.0479144 93.8742 0.319105 93.693L123.517 12.7613C123.606 12.7047 123.705 12.665 123.805 12.6537L224.754 0.00492787C225.131 -0.0403676 225.479 0.231403 225.524 0.622077C225.568 1.01275 225.302 1.3638 224.92 1.40909L124.126 14.0409L3.61214 93.2118L101.556 80.9367C101.933 80.8914 102.281 81.1632 102.326 81.5538C102.37 81.9445 102.104 82.2955 101.722 82.3408L0.772935 94.9953C0.745262 95.0009 0.71759 95.0009 0.689917 95.0009Z" fill="white"/>
<path d="M71.1552 249C70.8896 249 70.6461 248.841 70.5298 248.592L0.064518 94.5933C-0.0959827 94.2366 0.053449 93.8176 0.396588 93.6534C0.745262 93.4892 1.15482 93.6421 1.31532 93.9931L71.5703 247.528L172.022 234.941C172.398 234.89 172.747 235.168 172.791 235.559C172.835 235.949 172.57 236.3 172.188 236.346L71.2383 248.994C71.2106 248.994 71.1829 249 71.1552 249Z" fill="white"/>
<path d="M194.353 167.638C194.248 167.638 194.149 167.576 194.104 167.474L123.639 13.4803L124.143 13.2426L194.525 167.055L295.275 154.429L295.341 154.989L194.392 167.638C194.375 167.638 194.364 167.638 194.353 167.638Z" fill="white"/>
<path d="M194.24 167.15L71.0072 248.032L71.3061 248.509L194.539 167.627L194.24 167.15Z" fill="white"/>
</svg>
