<svg width="297" height="361" viewBox="0 0 297 361" fill="none" xmlns="http://www.w3.org/2000/svg">
<path d="M295.753 305.021L295.049 298.938C289.005 283.604 228.946 246.19 153.825 211.626L153.377 211.436L153.601 210.993L258.624 1.1405L259.04 1.33058C261.406 2.40772 261.598 2.94631 261.598 3.23143L296.041 299.001C296.52 300.268 296.648 301.377 296.392 302.359L295.753 305.021ZM154.656 210.993C227.379 244.479 284.336 279.581 294.761 296.53L260.639 3.35818C260.479 3.19978 259.935 2.85128 259.04 2.40775L154.656 210.993Z" fill="white"/>
<path d="M278.068 281.292L260.351 2.91461L261.278 2.85128L279.027 281.228L278.068 281.292Z" fill="white"/>
<path d="M227.155 248.534L259.551 2.31272L260.479 2.43942L228.115 248.661L227.155 248.534Z" fill="white"/>
<path d="M0.479586 167.749L0.735482 166.608C1.05528 165.309 1.95078 164.295 3.38989 163.567C4.25336 163.155 5.34068 162.838 6.58791 162.616L255.937 0.728685V0.696973L256.193 0.570272C256.577 0.380189 257.536 0.665283 259.008 1.33057L259.455 1.5207L259.231 1.96423L154.208 211.816L153.793 211.626C86.0906 180.484 25.2643 160.716 6.97166 163.535L0.479586 167.749ZM3.96551 164.39C3.93353 164.422 3.86964 164.422 3.83766 164.454C3.32598 164.707 2.91019 164.961 2.59039 165.278L3.96551 164.39ZM256.609 1.45732L8.69852 162.395C29.2938 160.969 87.3058 180.041 153.793 210.581L258.176 1.99589C257.376 1.6474 256.833 1.489 256.609 1.45732Z" fill="white"/>
<path d="M257.325 0.93513L78.5806 179.867L79.2625 180.536L258.007 1.60363L257.325 0.93513Z" fill="white"/>
<path d="M256.528 0.671204L23.7698 163.776L24.3239 164.552L257.082 1.44709L256.528 0.671204Z" fill="white"/>
<path d="M295.497 300.807C293.834 286.582 231.6 247.425 153.793 211.626C79.4707 177.443 14.7748 157.326 3.19802 164.771L2.68623 163.979L256.161 0.601949C256.289 0.506907 256.705 0.3168 259.04 1.33058C261.502 2.47108 261.566 2.978 261.566 3.1364L296.424 300.712L295.497 300.807ZM140.841 204.752C145.254 206.716 149.699 208.712 154.208 210.802C226.42 244.004 285.295 280.31 295.049 297.069L260.639 3.38985C260.447 3.23145 259.775 2.75624 258.624 2.24935C257.504 1.77414 256.801 1.55239 256.577 1.52071L6.39604 162.775C23.5694 159.829 77.7438 176.714 140.841 204.752Z" fill="white"/>
<path d="M295.753 305.021L295.049 298.938C289.005 283.604 228.946 246.19 153.825 211.626L153.377 211.436L153.601 210.993L258.624 1.1405L259.04 1.33058C261.406 2.40772 261.598 2.94631 261.598 3.23143L296.041 299.001C296.52 300.268 296.648 301.377 296.392 302.359L295.753 305.021ZM154.656 210.993C227.379 244.479 284.336 279.581 294.761 296.53L260.639 3.35818C260.479 3.19978 259.935 2.85128 259.04 2.40775L154.656 210.993Z" fill="white"/>
<path d="M295.753 305.021L260.639 3.13639L261.566 3.1364L296.424 300.712C296.488 301.282 296.456 301.853 296.36 302.359L295.753 305.021Z" fill="white"/>
<path d="M0.479586 167.749L0.735482 166.608C1.05528 165.309 1.95078 164.295 3.38989 163.567C4.25336 163.155 5.34068 162.838 6.58791 162.616L255.937 0.728685V0.696973L256.193 0.570272C256.577 0.380189 257.536 0.665283 259.008 1.33057L259.455 1.5207L259.231 1.96423L154.208 211.816L153.793 211.626C86.0906 180.484 25.2643 160.716 6.97166 163.535L0.479586 167.749ZM3.96551 164.39C3.93353 164.422 3.86964 164.422 3.83766 164.454C3.32598 164.707 2.91019 164.961 2.59039 165.278L3.96551 164.39ZM256.609 1.45732L8.69852 162.395C29.2938 160.969 87.3058 180.041 153.793 210.581L258.176 1.99589C257.376 1.6474 256.833 1.489 256.609 1.45732Z" fill="white"/>
<path d="M143.335 258.387L142.888 258.197C60.0588 220.117 -2.3666 179.882 0.735482 166.608L0.767565 166.418L0.927427 166.323L257.121 0L256.897 0.950427C257.121 1.14051 257.792 1.58406 258.848 2.05927L259.263 2.24934L143.335 258.387ZM1.63109 167.02C-0.703461 179.819 62.3934 220.117 142.856 257.151L258.016 2.75624C257.089 2.31271 256.577 1.96422 256.257 1.71078L1.63109 167.02Z" fill="white"/>
<path d="M18.8682 188.088L18.2606 187.359L256.385 1.0138L256.961 1.77415L18.8682 188.088Z" fill="white"/>
<path d="M257.252 1.73655L69.1687 220.154L69.8986 220.771L257.982 2.35335L257.252 1.73655Z" fill="white"/>
<path d="M156.671 264.406C152.13 262.378 147.557 260.319 142.919 258.197L142.504 258.007L258.464 1.90085L258.911 2.09093C259.807 2.4711 260.447 2.69286 260.766 2.78791L261.31 0.475237L296.424 302.391C296.105 303.69 295.209 304.704 293.77 305.432C280.946 311.578 224.437 294.503 156.671 264.406ZM143.719 257.531C215.93 290.669 280.146 310.881 293.29 304.545C294.473 303.975 295.177 303.215 295.433 302.233L260.702 3.70662C260.287 3.64326 259.679 3.45322 258.911 3.10473L143.719 257.531Z" fill="white"/>
<path d="M259.446 3.07317L217.79 288.867L218.74 289.003L260.395 3.20898L259.446 3.07317Z" fill="white"/>
<path d="M261.261 3.19652L260.303 3.23491L272.609 304.751L273.568 304.713L261.261 3.19652Z" fill="white"/>
<path d="M156.671 264.406C152.13 262.378 147.557 260.319 142.919 258.197C60.0908 220.117 -2.33451 179.882 0.767565 166.608C1.02341 165.531 1.66296 164.644 2.71831 163.979L256.193 0.601938L256.449 0.982138L256.865 1.1405C256.897 0.9821 256.865 0.855389 256.833 0.855389C256.929 0.982111 257.633 1.48902 258.88 2.05927C259.775 2.43943 260.415 2.6612 260.734 2.75624L261.278 0.443526L296.392 302.359C296.073 303.658 295.177 304.672 293.738 305.401C280.946 311.578 224.437 294.503 156.671 264.406ZM256.257 1.67907L3.19802 164.771C2.36653 165.309 1.85479 166.006 1.66291 166.83C-1.31125 179.47 62.2335 220.053 143.303 257.341C215.674 290.638 280.114 310.913 293.29 304.545C294.473 303.975 295.177 303.215 295.433 302.233L260.671 3.70662C260.159 3.64326 259.423 3.35813 258.464 2.91461C257.249 2.37604 256.609 1.96419 256.257 1.67907Z" fill="white"/>
<path d="M89.4164 360.271L89.0009 360.081C88.9049 360.018 88.617 359.923 88.5211 359.67L4.82899 175.827C1.63097 172.026 0.191819 168.921 0.735482 166.608L1.05535 165.246L5.78836 175.669C21.1069 193.346 76.1767 226.453 143.271 257.31L143.719 257.531L143.495 257.975L89.4164 360.271ZM6.9396 178.172L89.1607 358.751L142.44 258.007C77.1041 227.91 24.4967 196.515 6.9396 178.172ZM1.75882 169.048C1.98268 169.998 2.4944 171.043 3.19797 172.216L1.75882 169.048Z" fill="white"/>
<path d="M88.5852 359.733L18.1327 187.897L18.9962 187.549L89.4485 359.384L88.5852 359.733Z" fill="white"/>
<path d="M69.9935 220.216L69.0434 220.348L88.6676 359.565L89.6178 359.434L69.9935 220.216Z" fill="white"/>
<path d="M89.0647 360.113C89.0328 360.113 89.0329 360.081 89.0009 360.081L88.5531 359.86L88.777 359.416L142.887 257.12L143.303 257.31C203.33 284.967 257.984 303.595 282.353 305.527L296.552 301.567L296.36 302.328C296.041 303.627 295.145 304.64 293.706 305.369C291.371 306.509 287.534 306.858 282.417 306.478L89.6084 360.145C89.4485 360.24 89.2886 360.208 89.0647 360.113ZM143.303 258.387L90.0561 359.068L279.795 306.256C254.242 303.436 202.083 285.41 143.303 258.387ZM295.113 302.961L285.263 305.686C288.781 305.749 291.467 305.401 293.258 304.545C294.154 304.134 294.761 303.595 295.113 302.961Z" fill="white"/>
<path d="M89.5445 360.113L89.0968 359.289L217.977 288.388L218.457 289.212L89.5445 360.113Z" fill="white"/>
<path d="M272.816 304.469L89.121 359.261L89.3976 360.171L273.093 305.379L272.816 304.469Z" fill="white"/>
<path d="M89.0647 360.113C89.0328 360.113 89.0009 360.081 89.0009 360.081C88.745 359.986 88.6171 359.86 88.5531 359.701L1.43915 170.822C1.43915 170.822 1.43915 170.822 1.43915 170.79L2.30248 170.41C9.65792 186.377 70.2925 223.728 143.303 257.341C212.988 289.402 275.381 309.456 291.723 305.116L291.979 306.034H291.947L89.5445 360.208C89.4486 360.208 89.3206 360.24 89.0647 360.113ZM89.3527 359.226L89.4165 359.258L286.063 306.636C263.517 306.541 206.08 287.311 142.888 258.197C76.3048 227.562 19.9555 193.727 4.70099 175.7L89.3527 359.226Z" fill="white"/>
<path d="M88.777 360.398L88.8729 359.955L88.681 359.86L88.777 359.384L153.761 210.549L154.208 210.739C237.037 248.851 299.462 289.054 296.36 302.328L296.296 302.613L296.041 302.676L88.777 360.398ZM154.24 211.848L89.9283 359.099L295.465 301.884C297.512 288.99 234.543 248.819 154.24 211.848Z" fill="white"/>
<path d="M89.5765 360.145L89.2246 359.258L278.355 280.817L278.707 281.704L89.5765 360.145Z" fill="white"/>
<path d="M89.6084 360.018L89.0327 359.289L227.347 248.249L227.923 248.978L89.6084 360.018Z" fill="white"/>
<path d="M89.1288 361L88.5531 359.733L0.70347 166.766L0.735482 166.608C1.05528 165.309 1.95078 164.295 3.38989 163.567C17.0135 156.977 80.3981 176.841 154.176 210.771L154.592 210.961L154.4 211.373L89.4165 360.208L89.2886 360.145L89.1288 361ZM1.69485 166.671L89.0968 358.656L153.377 211.436C149.06 209.472 144.774 207.508 140.521 205.639C73.6824 175.954 16.15 158.466 3.80565 164.422C2.68634 164.992 1.98267 165.721 1.69485 166.671Z" fill="white"/>
<path d="M88.649 359.574L78.4153 180.231L79.3749 180.167L89.5765 359.543L88.649 359.574Z" fill="white"/>
<path d="M88.5852 359.67L23.6334 164.39L24.5287 164.074L89.4805 359.384L88.5852 359.67Z" fill="white"/>
<path d="M89.4164 360.271L89.0009 360.081C88.9049 360.018 88.617 359.923 88.5211 359.67L4.82899 175.827C1.63097 172.026 0.191819 168.921 0.735482 166.608L1.05535 165.246L5.78836 175.669C21.1069 193.346 76.1767 226.453 143.271 257.31L143.719 257.531L143.495 257.975L89.4164 360.271ZM6.9396 178.172L89.1607 358.751L142.44 258.007C77.1041 227.91 24.4967 196.515 6.9396 178.172ZM1.75882 169.048C1.98268 169.998 2.4944 171.043 3.19797 172.216L1.75882 169.048Z" fill="white"/>
<path d="M88.777 360.398L88.8729 359.986L88.5212 359.828V359.638L1.43915 170.822C0.703603 169.238 0.47964 167.812 0.735482 166.608C1.05528 165.309 1.95078 164.295 3.38989 163.567C17.0135 156.977 80.3981 176.841 154.176 210.771C237.005 248.883 299.43 289.085 296.328 302.359L296.265 302.644L296.009 302.708L89.7684 360.113L89.9283 360.461L89.3847 360.208L88.777 360.398ZM89.4165 359.163C89.4485 359.163 89.4806 359.194 89.5125 359.226L295.497 301.884C297.512 288.958 234.319 248.661 153.825 211.626C81.4854 178.298 17.0135 158.054 3.83769 164.422C2.62244 164.992 1.9187 165.784 1.66286 166.798C1.439 167.78 1.6309 168.984 2.30248 170.41L89.3527 359.131C89.3527 359.163 89.3845 359.163 89.4165 359.163Z" fill="white"/>
<path d="M89.0647 360.113C89.0328 360.113 89.0329 360.081 89.0009 360.081L88.5531 359.86L88.777 359.416L142.887 257.12L143.303 257.31C203.33 284.967 257.984 303.595 282.353 305.527L296.552 301.567L296.36 302.328C296.041 303.627 295.145 304.64 293.706 305.369C291.371 306.509 287.534 306.858 282.417 306.478L89.6084 360.145C89.4485 360.24 89.2886 360.208 89.0647 360.113ZM143.303 258.387L90.0561 359.068L279.795 306.256C254.242 303.436 202.083 285.41 143.303 258.387ZM295.113 302.961L285.263 305.686C288.781 305.749 291.467 305.401 293.258 304.545C294.154 304.134 294.761 303.595 295.113 302.961Z" fill="white"/>
<path d="M89.5445 360.208L89.3847 359.733L89.0009 359.543L89.0968 359.353L89.3206 359.289L296.584 301.599L296.392 302.359C295.977 304.102 294.506 305.337 292.011 306.003L89.5445 360.208ZM295.113 302.961L179.889 335.022L291.723 305.084C293.418 304.672 294.569 303.943 295.113 302.961Z" fill="white"/>
<path d="M89.4164 360.271L89.0009 360.081C88.9049 360.018 88.617 359.923 88.5211 359.67L4.38126 175.732C1.15126 171.93 -0.319786 168.762 0.223877 166.45L0.543601 165.087L5.34063 175.574C20.7551 193.315 75.9848 226.516 143.207 257.436L143.655 257.658L143.431 258.102L89.4164 360.271ZM6.49187 178.076L89.1288 358.751L142.376 258.133C76.9122 227.973 24.1769 196.515 6.49187 178.076ZM1.24727 168.857C1.50311 169.84 1.98272 170.948 2.75024 172.152L1.24727 168.857Z" fill="white"/>
<path d="M88.5852 359.733L17.6849 187.834L18.5805 187.454L89.4485 359.384L88.5852 359.733Z" fill="white"/>
<path d="M88.617 359.67L68.7254 220.465L69.6527 220.338L89.5765 359.543L88.617 359.67Z" fill="white"/>
<path d="M89.0647 360.113C89.0328 360.113 89.0329 360.081 89.0009 360.081L88.5531 359.86L88.777 359.416L142.823 257.246L143.239 257.436C203.426 285.125 258.176 303.848 282.641 305.781L296.968 301.821L296.776 302.581C296.456 303.88 295.561 304.894 294.09 305.622C291.723 306.763 287.854 307.111 282.705 306.731L89.5765 360.113C89.4486 360.24 89.2886 360.208 89.0647 360.113ZM143.271 258.513L90.0561 359.068L280.114 306.541C254.466 303.69 202.179 285.569 143.271 258.513ZM295.561 303.246L285.615 306.003C289.197 306.098 291.915 305.717 293.706 304.862C294.569 304.419 295.209 303.88 295.561 303.246Z" fill="white"/>
<path d="M218.25 288.73L89.1795 359.447L89.6439 360.279L218.715 289.561L218.25 288.73Z" fill="white"/>
<path d="M89.5125 360.176L89.2566 359.289L273.271 304.609L273.526 305.496L89.5125 360.176Z" fill="white"/>
<path d="M89.0647 360.113C89.0328 360.113 89.0009 360.081 89.0009 360.081C88.777 359.986 88.6171 359.86 88.5531 359.733L0.959367 170.695L1.82289 170.315C9.27428 186.345 70.0686 223.823 143.271 257.468C213.084 289.592 275.733 309.741 292.139 305.401L292.395 306.319L89.5765 360.208C89.4486 360.208 89.3206 360.24 89.0647 360.113ZM89.3527 359.226L89.4165 359.258L286.447 306.921C263.805 306.795 206.24 287.533 142.855 258.323C76.0808 227.625 19.5719 193.663 4.25342 175.574L89.3527 359.226Z" fill="white"/>
<path d="M88.777 360.398L88.8729 359.955L88.681 359.86L88.777 359.384L153.761 210.549L154.208 210.739C237.293 248.946 299.942 289.307 296.808 302.613L296.744 302.898L296.488 302.961L88.777 360.398ZM154.24 211.848L89.9603 359.131L295.945 302.201C297.959 289.212 234.766 248.914 154.24 211.848Z" fill="white"/>
<path d="M278.748 281.016L89.2029 359.179L89.5716 360.056L279.116 281.894L278.748 281.016Z" fill="white"/>
<path d="M89.6084 360.018L89.0327 359.289L227.571 248.344L228.147 249.073L89.6084 360.018Z" fill="white"/>
<path d="M89.1288 361L0.191873 166.608L0.223877 166.45C0.543679 165.151 1.43902 164.137 2.91011 163.408C16.5657 156.819 80.1742 176.778 154.176 210.771L154.592 210.961L154.4 211.373L89.4165 360.208L89.2886 360.145L89.1288 361ZM1.21526 166.513L89.0968 358.656L153.377 211.436C80.9737 178.172 16.5017 157.896 3.32587 164.264C2.17458 164.834 1.50308 165.563 1.21526 166.513Z" fill="white"/>
<path d="M79.0037 180.133L78.046 180.188L88.4997 359.669L89.4574 359.614L79.0037 180.133Z" fill="white"/>
<path d="M88.5852 359.67L23.2176 164.232L24.113 163.915L89.4805 359.384L88.5852 359.67Z" fill="white"/>
<path d="M89.4164 360.271L89.0009 360.081C88.9049 360.018 88.617 359.923 88.5211 359.67L4.38126 175.732C1.15126 171.93 -0.319786 168.762 0.223877 166.45L0.543601 165.087L5.34063 175.574C20.7551 193.315 75.9848 226.516 143.207 257.436L143.655 257.658L143.431 258.102L89.4164 360.271ZM6.49187 178.076L89.1288 358.751L142.376 258.133C76.9122 227.973 24.1769 196.515 6.49187 178.076ZM1.24727 168.857C1.50311 169.84 1.98272 170.948 2.75024 172.152L1.24727 168.857Z" fill="white"/>
<path d="M88.777 360.398L88.8729 359.986L88.5212 359.828V359.638L0.959367 170.695C0.223822 169.079 -0.0319652 167.654 0.255857 166.45C0.575658 165.151 1.47099 164.137 2.94208 163.408C16.5976 156.819 80.2062 176.778 154.208 210.771C237.293 248.978 299.942 289.339 296.808 302.644L296.744 302.93L296.488 302.993L89.8004 360.113L89.9602 360.462L89.4165 360.208L88.777 360.398ZM89.4165 359.163C89.4485 359.163 89.4806 359.194 89.5125 359.226L295.913 302.169C297.959 289.212 234.543 248.787 153.793 211.626C81.2615 178.203 16.5337 157.896 3.32587 164.264C2.11062 164.834 1.40704 165.626 1.1512 166.671C0.927339 167.654 1.11926 168.889 1.79084 170.315L89.3206 359.131C89.3526 359.163 89.3845 359.163 89.4165 359.163Z" fill="white"/>
<path d="M89.0647 360.113C89.0328 360.113 89.0329 360.081 89.0009 360.081L88.5531 359.86L88.777 359.416L142.823 257.246L143.239 257.436C203.426 285.125 258.176 303.848 282.641 305.781L296.968 301.821L296.776 302.581C296.456 303.88 295.561 304.894 294.09 305.622C291.723 306.763 287.854 307.111 282.705 306.731L89.5765 360.113C89.4486 360.24 89.2886 360.208 89.0647 360.113ZM143.271 258.513L90.0561 359.068L280.114 306.541C254.466 303.69 202.179 285.569 143.271 258.513ZM295.561 303.246L285.615 306.003C289.197 306.098 291.915 305.717 293.706 304.862C294.569 304.419 295.209 303.88 295.561 303.246Z" fill="white"/>
<path d="M89.5445 360.208L89.3847 359.733L89.0009 359.543L89.0968 359.353L89.3206 359.289L297 301.884L296.808 302.644C296.392 304.419 294.921 305.654 292.395 306.319L89.5445 360.208ZM295.561 303.246L179.377 335.37L292.139 305.401C293.834 304.957 294.985 304.229 295.561 303.246Z" fill="white"/>
<path d="M296.168 305.274L295.465 299.191C289.357 283.795 229.106 246.285 153.793 211.626L153.345 211.436L153.569 210.993L258.592 1.1405L259.008 1.33057C261.374 2.40771 261.566 2.94631 261.566 3.23143L296.424 299.255C296.904 300.522 297.032 301.662 296.808 302.644L296.168 305.274ZM154.624 210.993C227.571 244.574 284.688 279.771 295.177 296.784L260.639 3.35818C260.479 3.19978 259.935 2.85128 259.04 2.40775L154.624 210.993Z" fill="white"/>
<path d="M278.452 281.514L260.351 2.91461L261.278 2.85128L279.379 281.45L278.452 281.514Z" fill="white"/>
<path d="M259.438 2.40089L227.291 248.746L228.243 248.868L260.39 2.52274L259.438 2.40089Z" fill="white"/>
<path d="M0 167.59L0.255857 166.45C0.575658 165.151 1.47099 164.137 2.94208 163.408C3.80555 162.997 4.89295 162.68 6.17215 162.458L256.001 0.728685V0.696973L256.257 0.570272C256.641 0.380189 257.6 0.665283 259.072 1.33057L259.519 1.5207L259.295 1.96423L154.272 211.816L153.857 211.626C85.9627 180.357 24.9765 160.557 6.58791 163.377L0 167.59ZM3.51774 164.2C3.45378 164.232 3.38983 164.264 3.32587 164.295C2.81419 164.549 2.36658 164.834 2.04678 165.151L3.51774 164.2ZM256.609 1.45732L8.25094 162.236C28.9421 160.811 87.1141 179.977 153.761 210.581L258.176 1.99589C257.376 1.6474 256.833 1.489 256.609 1.45732Z" fill="white"/>
<path d="M78.9911 180.421L78.3195 179.756L257.281 0.950427L257.984 1.61574L78.9911 180.421Z" fill="white"/>
<path d="M256.447 0.521134L23.4796 163.772L24.0336 164.548L257.001 1.29702L256.447 0.521134Z" fill="white"/>
<path d="M295.945 301.092C294.25 286.804 231.824 247.52 153.825 211.658C79.3108 177.38 14.3591 157.167 2.75025 164.644L2.23865 163.852L230.801 16.9808C233.263 15.3968 236.142 13.8761 239.18 12.2604C245.544 8.83892 252.164 5.32236 256.097 0.760361L256.193 0.665324C256.321 0.570282 256.737 0.380185 259.072 1.39396C260.703 2.1543 261.566 2.75625 261.598 3.19978L296.904 301.029L295.945 301.092ZM140.745 204.688C145.19 206.652 149.667 208.68 154.208 210.771C226.643 244.067 285.711 280.468 295.497 297.29L260.639 3.32648C260.447 3.16808 259.775 2.69287 258.624 2.18598C257.568 1.71077 256.897 1.5207 256.641 1.45734C252.58 6.0827 245.96 9.59922 239.564 13.0207C236.557 14.6364 233.711 16.1571 231.249 17.7095L5.91626 162.521C23.1536 159.638 77.456 176.587 140.745 204.688Z" fill="white"/>
<path d="M296.168 305.274L295.465 299.191C289.357 283.795 229.106 246.285 153.793 211.626L153.345 211.436L153.569 210.993L258.592 1.1405L259.008 1.33057C261.374 2.40771 261.566 2.94631 261.566 3.23143L296.424 299.255C296.904 300.522 297.032 301.662 296.808 302.644L296.168 305.274ZM154.624 210.993C227.571 244.574 284.688 279.771 295.177 296.784L260.639 3.35818C260.479 3.19978 259.935 2.85128 259.04 2.40775L154.624 210.993Z" fill="white"/>
<path d="M296.168 305.274L295.849 302.581L260.607 3.13639H261.534L296.84 300.965C296.904 301.567 296.872 302.138 296.776 302.644L296.168 305.274Z" fill="white"/>
<path d="M0 167.59L0.255857 166.45C0.575658 165.151 1.47099 164.137 2.94208 163.408C3.80555 162.997 4.89295 162.68 6.17215 162.458L256.001 0.728685V0.696973L256.257 0.570272C256.641 0.380189 257.6 0.665283 259.072 1.33057L259.519 1.5207L259.295 1.96423L154.272 211.816L153.857 211.626C85.9627 180.357 24.9765 160.557 6.58791 163.377L0 167.59ZM3.51774 164.2C3.45378 164.232 3.38983 164.264 3.32587 164.295C2.81419 164.549 2.36658 164.834 2.04678 165.151L3.51774 164.2ZM256.609 1.45732L8.25094 162.236C28.9421 160.811 87.1141 179.977 153.761 210.581L258.176 1.99589C257.376 1.6474 256.833 1.489 256.609 1.45732Z" fill="white"/>
<path d="M143.303 258.545L142.855 258.355C59.7709 220.148 -2.87818 179.787 0.255877 166.481L0.287693 166.291L0.44775 166.196L257.121 0.0317115L256.897 0.982138C257.121 1.17222 257.792 1.61572 258.848 2.09093L259.263 2.281L143.303 258.545ZM1.15122 166.862C-1.18333 179.724 62.1054 220.117 142.823 257.278L258.048 2.72453C257.121 2.281 256.609 1.93251 256.289 1.67907L1.15122 166.862Z" fill="white"/>
<path d="M18.4206 188.024L17.845 187.264L256.385 1.0138L256.961 1.77415L18.4206 188.024Z" fill="white"/>
<path d="M257.127 1.57377L68.9192 220.136L69.6491 220.753L257.857 2.19056L257.127 1.57377Z" fill="white"/>
<path d="M156.703 264.596C152.13 262.569 147.525 260.478 142.855 258.355L142.44 258.165L258.432 1.90085L258.88 2.09093C259.775 2.4711 260.415 2.69286 260.734 2.78791L261.278 0.475237L261.598 3.16806L296.84 302.644C296.52 303.943 295.625 304.957 294.154 305.686C281.33 311.864 224.661 294.756 156.703 264.596ZM143.687 257.69C216.122 290.923 280.53 311.23 293.706 304.862C294.889 304.292 295.593 303.532 295.849 302.549L260.671 3.77C260.255 3.70663 259.647 3.51654 258.88 3.16806L143.687 257.69Z" fill="white"/>
<path d="M217.945 288.958L259.391 2.94632L260.319 3.07302L218.872 289.085L217.945 288.958Z" fill="white"/>
<path d="M272.919 305.052L260.255 3.29481L261.214 3.23143L273.878 305.021L272.919 305.052Z" fill="white"/>
<path d="M156.703 264.596C152.13 262.569 147.525 260.478 142.855 258.355C59.7709 220.148 -2.87818 179.787 0.255877 166.481C0.511718 165.404 1.15128 164.517 2.20662 163.852L256.161 0.63365L256.417 1.0138L256.833 1.17221C256.865 1.01381 256.833 0.887052 256.801 0.887052C256.897 1.01377 257.6 1.52068 258.848 2.09093C259.743 2.4711 260.383 2.69286 260.702 2.78791L261.246 0.475237L261.566 3.16806L296.808 302.644C296.488 303.943 295.593 304.957 294.122 305.686C281.33 311.864 224.661 294.756 156.703 264.596ZM2.71822 164.612C1.85475 165.151 1.37506 165.848 1.1512 166.671C-1.82296 179.344 61.9136 220.085 143.239 257.468C215.834 290.923 280.498 311.198 293.706 304.83C294.889 304.26 295.593 303.5 295.849 302.518L260.671 3.73833C260.159 3.67497 259.423 3.38985 258.464 2.94632C257.249 2.40775 256.609 1.99587 256.289 1.67907L2.71822 164.612Z" fill="white"/>
</svg>
