<svg width="296" height="302" viewBox="0 0 296 302" fill="none" xmlns="http://www.w3.org/2000/svg">
<path d="M170.641 237.228L88.8296 156.037C79.6921 146.977 70.5749 137.875 61.478 128.759C61.1865 128.468 61.1797 127.984 61.4712 127.687C61.5661 127.59 61.6881 127.521 61.8101 127.486L136.442 106.972L211.122 86.659C211.522 86.5484 211.929 86.7904 212.037 87.1916C212.071 87.323 212.071 87.4682 212.037 87.5927C208.621 100.125 205.191 112.665 201.72 125.169L170.641 237.228ZM170.641 237.228L200.575 124.526C203.876 112.063 207.231 99.6272 210.594 87.1916L211.502 88.1253L136.87 108.639L62.1829 128.946L62.5151 127.673C71.5238 136.727 80.5123 145.787 89.4871 154.903L170.641 237.228Z" fill="white"/>
<path d="M187.424 302C187.35 302 187.275 301.993 187.207 301.972L40.0576 261.747C39.7661 261.664 39.5356 261.436 39.4611 261.138L0.0299748 110.991C-0.0513684 110.693 0.0367545 110.375 0.246891 110.154L107.972 0.252894C108.189 0.03157 108.501 -0.0514264 108.793 0.03157L255.942 40.2641C256.234 40.3471 256.464 40.5753 256.539 40.8727L295.97 191.013C296.051 191.311 295.963 191.629 295.753 191.85L188.028 301.751C187.865 301.917 187.648 302 187.424 302ZM40.9727 260.204L187.174 300.174L294.201 190.972L255.027 41.7995L108.826 1.82291L1.79241 111.025L40.9727 260.204Z" fill="white"/>
<path d="M170.641 237.228L88.6059 155.809C79.5294 146.811 70.5003 137.792 61.478 128.759L62.732 128.344L51.9744 194.706L41.0202 261.034L40.1525 260.156C50.9644 258.206 61.7694 256.262 72.6016 254.381L170.641 237.228ZM170.641 237.228L73.1372 255.598C62.244 257.659 51.3236 259.665 40.4033 261.664C39.9966 261.74 39.6102 261.463 39.5356 261.048C39.5221 260.958 39.5221 260.868 39.5356 260.785L50.3001 194.423L61.2611 128.095C61.3288 127.68 61.7084 127.403 62.1152 127.472C62.2711 127.5 62.4066 127.576 62.5151 127.68C71.5984 136.81 80.6817 145.96 89.7108 155.131L170.641 237.228Z" fill="white"/>
<path d="M0.850186 110.769L31.2996 119.007L46.7277 123.198C51.8863 124.588 57.0448 126.027 62.1965 127.486C62.5625 127.59 62.7862 127.964 62.732 128.344L51.9744 194.706L41.0202 261.034C40.9524 261.449 40.5728 261.733 40.1661 261.664C39.8678 261.615 39.6373 261.387 39.5628 261.11L29.7745 223.389L0.850186 110.769ZM0.850186 110.769L31.076 223.361L40.9998 260.709L39.5424 260.779L50.3068 194.416L61.2678 128.088L61.8033 128.946C56.7601 127.493 51.7303 126.034 46.7006 124.512L0.850186 110.769Z" fill="white"/>
<path d="M255.719 41.094L285.856 153.374C289.225 165.907 292.554 178.474 295.868 191.034C295.977 191.435 295.74 191.857 295.346 191.961C295.055 192.037 294.757 191.933 294.58 191.712L252.58 139.86L210.743 87.8763C210.499 87.5789 210.526 87.1363 210.783 86.8596C214.532 82.9726 218.294 79.0856 222.077 75.2539L255.719 41.094ZM255.719 41.094L222.754 76.3882C219.141 80.2683 215.501 84.1 211.841 87.9316L211.882 86.9149L253.875 138.767L295.712 190.75L294.424 191.428C291.164 178.965 287.924 166.508 284.718 154.018L255.719 41.094Z" fill="white"/>
<path d="M255.719 41.094L145.045 11.4989C132.802 8.23438 120.587 4.92144 108.379 1.59467L109.043 0.280559L160.479 43.4663L211.787 86.8112L210.783 86.8665C214.457 83.0556 218.131 79.2585 221.86 75.4822L255.719 41.094ZM255.719 41.094L233.993 64.3745L222.971 76.16C219.297 80.1023 215.569 84.0239 211.841 87.9316C211.57 88.2152 211.129 88.229 210.838 87.987L159.402 44.8012L108.094 1.44942C107.776 1.1866 107.735 0.702457 107.993 0.384305C108.183 0.149148 108.488 0.0592355 108.759 0.135315C121.069 3.5105 133.385 6.90644 145.668 10.3439L255.719 41.094Z" fill="white"/>
<path d="M0.850186 110.769L47.026 123.281C52.1032 124.651 57.1464 126.055 62.1965 127.486L61.3017 127.95L84.4913 64.2362L107.871 0.591796L109.098 1.39409L82.2001 28.6791L0.850186 110.769ZM0.850186 110.769L81.0817 27.9875L108.04 0.315141C108.332 0.0177373 108.806 0.0177373 109.098 0.315141C109.315 0.529548 109.369 0.854617 109.267 1.12436L86.0707 64.8379L62.6913 128.475C62.5558 128.849 62.1626 129.043 61.7966 128.939C56.6516 127.459 51.5067 125.965 46.3888 124.422L0.850186 110.769Z" fill="white"/>
<path d="M170.641 237.228L263.955 202.072C274.265 198.178 284.568 194.34 294.892 190.515L294.574 191.712L252.573 139.86L210.736 87.8763L212.031 87.5927C208.641 100.021 205.245 112.436 201.795 124.858L170.641 237.228ZM170.641 237.228L200.493 124.837C203.822 112.284 207.198 99.7309 210.594 87.1916C210.702 86.7904 211.116 86.5484 211.509 86.659C211.665 86.7005 211.793 86.7904 211.888 86.908L253.882 138.76L295.719 190.743C295.984 191.068 295.936 191.546 295.618 191.808C295.55 191.864 295.475 191.905 295.394 191.94C284.962 195.785 274.523 199.61 264.077 203.387L170.641 237.228Z" fill="white"/>
<path d="M170.641 237.228L232.57 213.851L263.697 202.162C274.075 198.255 284.487 194.374 294.892 190.522C295.279 190.377 295.706 190.584 295.841 190.979C295.943 191.262 295.862 191.573 295.665 191.774L241.877 246.801L187.946 301.682C187.655 301.979 187.187 301.979 186.896 301.682C186.801 301.585 186.733 301.461 186.699 301.336C185.303 295.969 183.913 290.588 182.578 285.214L178.538 269.127C177.182 263.773 175.867 258.434 174.559 253.115L170.641 237.228ZM170.641 237.228L175.108 253.295C176.599 258.634 178.077 263.946 179.52 269.244L183.872 285.11C185.33 290.387 186.74 295.665 188.143 300.949L186.896 300.61L240.684 245.583L294.614 190.702L295.394 191.954C285.056 195.765 274.712 199.555 264.341 203.31L233.214 214.619L170.641 237.228Z" fill="white"/>
<path d="M40.2813 261.256C40.2406 261.256 40.1932 261.249 40.1525 261.228C40.0576 261.187 39.983 261.104 39.9559 261L0.524813 110.859C0.49092 110.742 0.524813 110.61 0.612935 110.527L108.332 0.619461C108.42 0.529548 108.542 0.494966 108.657 0.529548C108.772 0.56413 108.867 0.654043 108.894 0.771621L158.846 190.992C158.886 191.145 158.819 191.304 158.69 191.38L40.4508 261.207C40.3965 261.242 40.3355 261.256 40.2813 261.256ZM1.22979 110.873L40.4914 260.384L158.127 190.916L108.393 1.53242L1.22979 110.873Z" fill="white"/>
<path d="M295.15 191.573L158.527 191.428C158.371 191.428 158.242 191.324 158.202 191.172L108.244 0.951446C108.21 0.833868 108.244 0.702457 108.332 0.619461C108.42 0.529548 108.542 0.494966 108.657 0.529548L255.807 40.7551C255.922 40.7897 256.017 40.8796 256.044 40.9972L295.475 191.138C295.502 191.241 295.482 191.352 295.414 191.435C295.353 191.525 295.251 191.573 295.15 191.573ZM158.785 190.736L294.702 190.882L255.441 41.3707L109.05 1.3526L158.785 190.736Z" fill="white"/>
</svg>
